<?xml version="1.0" standalone="no"?>
<!DOCTYPE svg PUBLIC "-//W3C//DTD SVG 20010904//EN"
 "http://www.w3.org/TR/2001/REC-SVG-20010904/DTD/svg10.dtd">
<svg version="1.0" xmlns="http://www.w3.org/2000/svg"
 width="1080.000000pt" height="1080.000000pt" viewBox="0 0 1080.000000 1080.000000"
 preserveAspectRatio="xMidYMid meet">

<g transform="translate(0.000000,1080.000000) scale(0.100000,-0.100000)"
fill="#000000" stroke="none">
<path d="M1947 9242 c-8 -2 -17 -9 -20 -15 -3 -7 -80 -190 -172 -407 -92 -217
-170 -401 -172 -407 -4 -10 33 -13 165 -13 l170 0 22 60 23 61 135 -3 136 -3
20 -57 21 -58 169 0 c156 0 168 1 163 18 -9 32 -338 807 -346 815 -7 7 -281
15 -314 9z m445 -422 c87 -206 158 -376 158 -377 0 -2 -55 -2 -122 -1 l-123 3
-19 55 c-11 30 -20 56 -21 58 -1 1 -76 3 -166 4 l-164 1 -25 -61 -25 -62 -117
0 c-72 0 -118 4 -118 10 0 5 68 171 151 367 83 197 153 364 156 371 4 9 38 12
141 10 l136 -3 158 -375z"/>
<path d="M2040 8863 c-29 -81 -55 -154 -58 -160 -3 -10 23 -13 112 -13 64 0
116 4 116 8 0 15 -101 297 -109 305 -4 4 -32 -59 -61 -140z m91 -60 c10 -31
19 -60 19 -65 0 -4 -25 -8 -56 -8 -49 0 -55 2 -49 18 3 9 16 45 28 79 24 69
26 68 58 -24z"/>
<path d="M2920 9236 c-80 -23 -146 -63 -200 -123 -229 -250 -103 -643 228
-712 112 -23 251 -8 363 40 l49 21 0 134 c0 74 -2 134 -5 134 -3 0 -23 -11
-44 -24 -174 -110 -381 -45 -381 120 0 111 98 185 220 165 70 -12 101 -24 156
-62 l44 -30 0 150 0 150 -67 22 c-85 27 -292 36 -363 15z m333 -52 l57 -17 0
-95 c0 -74 -3 -92 -12 -84 -24 19 -137 52 -180 52 -75 0 -120 -19 -169 -69
-86 -89 -79 -226 14 -308 66 -58 176 -70 286 -33 33 11 63 20 66 20 3 0 5 -36
5 -79 l0 -80 -53 -20 c-242 -90 -496 -11 -582 182 -104 230 26 497 265 547 65
13 236 5 303 -16z"/>
<path d="M3678 9231 c-139 -45 -225 -130 -274 -270 -55 -155 -19 -323 95 -440
123 -126 334 -164 536 -97 44 15 84 31 89 36 9 9 15 272 6 268 -148 -74 -143
-73 -226 -73 -70 0 -85 3 -121 27 -48 32 -73 80 -73 142 0 66 22 110 70 142
78 52 197 34 318 -46 l33 -22 -3 148 -3 149 -65 24 c-91 34 -297 40 -382 12z
m352 -47 l55 -19 1 -87 c1 -49 0 -88 -2 -88 -2 0 -39 12 -81 26 -94 32 -168
29 -235 -8 -138 -76 -140 -278 -4 -363 78 -48 183 -48 309 1 16 6 18 -1 15
-77 l-3 -83 -67 -22 c-132 -45 -267 -39 -385 15 -197 92 -271 347 -157 538 20
32 47 70 60 84 33 35 108 75 175 94 72 20 243 14 319 -11z"/>
<path d="M4201 9241 c-8 -5 -11 -121 -12 -422 l0 -414 316 -3 315 -2 0 110 0
110 -156 0 -155 0 3 48 3 47 130 2 c72 1 135 2 141 2 5 1 9 18 8 39 -1 20 -3
70 -3 110 l-1 72 -140 0 -140 0 0 40 0 40 150 0 150 0 0 110 0 110 -282 1
c-156 0 -290 2 -299 4 -9 1 -21 0 -28 -4z m569 -111 l0 -70 -150 0 -150 0 0
-82 0 -83 140 3 140 3 0 -70 0 -71 -140 0 -140 0 0 -90 0 -90 150 0 c170 0
165 3 158 -91 l-3 -44 -272 -3 -273 -2 0 380 0 380 270 0 270 0 0 -70z"/>
<path d="M5014 9234 c-141 -50 -213 -217 -150 -349 28 -60 51 -82 153 -149 99
-65 105 -90 23 -94 -47 -2 -67 3 -125 32 -38 19 -72 33 -75 31 -3 -2 -5 -59
-4 -127 l2 -123 44 -22 c124 -64 338 -55 444 18 82 56 124 184 90 272 -21 56
-84 119 -167 168 -36 22 -77 51 -90 65 -24 25 -24 26 -4 40 35 26 111 -4 200
-80 l40 -34 -1 136 -1 137 -54 37 c-30 20 -73 42 -96 47 -58 15 -180 12 -229
-5z m220 -38 c26 -8 63 -25 82 -38 34 -23 34 -24 34 -101 l0 -77 -37 23 c-86
54 -168 59 -199 12 -33 -50 0 -98 111 -159 72 -41 137 -108 154 -158 24 -74
-23 -184 -98 -226 -59 -33 -173 -48 -261 -33 -39 6 -87 18 -106 26 l-34 14 0
81 0 81 28 -15 c89 -46 201 -38 231 16 14 25 14 29 -5 55 -11 15 -59 54 -106
85 -93 62 -119 91 -139 156 -23 77 18 183 87 228 66 44 171 56 258 30z"/>
<path d="M5738 9231 c-76 -25 -119 -53 -174 -114 -90 -100 -126 -221 -106
-359 32 -222 205 -368 437 -368 177 0 323 86 394 232 108 223 20 490 -196 590
-62 29 -78 32 -183 35 -91 3 -127 -1 -172 -16z m267 -35 c74 -19 127 -50 179
-102 77 -76 108 -156 107 -276 -1 -252 -208 -420 -466 -378 -93 15 -160 47
-219 106 -146 146 -148 394 -4 550 40 44 120 90 181 104 52 13 168 11 222 -4z"/>
<path d="M5865 9012 c-41 -5 -88 -43 -110 -88 -26 -55 -23 -154 7 -212 53
-103 182 -111 254 -17 22 29 28 49 32 109 9 142 -62 222 -183 208z m84 -57
c34 -17 61 -78 61 -136 0 -144 -140 -202 -210 -86 -38 62 -20 185 31 221 29
20 81 21 118 1z"/>
<path d="M6598 9242 l-208 -2 0 -420 0 -420 165 0 165 0 0 165 c0 154 1 165
19 165 10 0 31 -12 46 -27 26 -27 95 -162 130 -255 l18 -48 163 0 c90 0 164 3
164 6 0 18 -145 314 -173 353 l-33 46 29 24 c92 76 89 257 -6 337 -81 69 -155
81 -479 76z m401 -77 c70 -39 101 -86 107 -162 7 -81 -21 -127 -100 -169 l-58
-31 31 -11 c17 -6 43 -24 57 -39 27 -28 154 -277 154 -300 0 -10 -29 -13 -112
-13 l-113 1 -44 102 c-61 139 -97 193 -147 217 -22 11 -52 20 -67 20 l-27 0 0
-170 0 -170 -120 0 -120 0 0 381 0 381 253 -4 252 -3 54 -30z"/>
<path d="M6680 8990 l0 -120 50 0 c96 0 150 44 150 122 0 76 -56 118 -157 118
l-43 0 0 -120z m99 70 c42 -12 51 -24 51 -71 0 -43 -23 -68 -74 -76 l-36 -6 0
82 c0 88 0 88 59 71z"/>
<path d="M7294 9241 c-2 -2 -4 -193 -4 -423 l0 -418 165 0 165 0 0 420 0 420
-130 1 c-71 1 -144 2 -161 3 -17 0 -33 -1 -35 -3z m286 -421 l0 -380 -120 0
-120 0 0 380 0 380 120 0 120 0 0 -380z"/>
<path d="M7978 9231 c-76 -25 -119 -53 -174 -114 -90 -100 -126 -221 -106
-359 32 -222 205 -368 437 -368 227 0 399 143 436 362 31 188 -68 381 -238
460 -62 29 -78 32 -183 35 -91 3 -127 -1 -172 -16z m267 -35 c74 -19 127 -50
179 -102 77 -76 108 -156 107 -276 -1 -252 -208 -420 -466 -378 -93 15 -160
47 -219 106 -146 146 -148 394 -4 550 40 44 120 90 181 104 52 13 168 11 222
-4z"/>
<path d="M8105 9012 c-41 -5 -88 -43 -110 -88 -26 -55 -23 -154 7 -212 53
-103 182 -111 254 -17 22 29 28 49 32 109 9 142 -62 222 -183 208z m84 -57
c34 -17 61 -78 61 -136 0 -144 -140 -202 -210 -86 -38 62 -20 185 31 221 29
20 81 21 118 1z"/>
<path d="M8776 9234 c-71 -22 -140 -95 -162 -170 -39 -136 12 -238 166 -327
105 -61 111 -97 16 -97 -52 0 -113 23 -167 61 l-29 20 0 -136 0 -136 43 -19
c95 -42 265 -51 369 -20 59 17 120 70 150 130 62 124 19 247 -117 330 -101 62
-135 90 -135 109 0 11 9 21 22 25 39 10 95 -15 163 -71 l65 -53 0 134 0 134
-32 28 c-58 49 -115 67 -213 71 -61 2 -106 -2 -139 -13z m268 -58 c31 -15 61
-36 66 -46 8 -15 11 -150 3 -150 -1 0 -24 14 -50 30 -84 53 -166 50 -192 -6
-22 -48 12 -86 156 -176 83 -52 118 -105 118 -178 -1 -83 -40 -144 -119 -185
-54 -27 -66 -29 -165 -29 -77 1 -121 6 -161 20 l-55 19 -3 81 -3 81 68 -23
c79 -27 111 -29 157 -10 75 31 55 96 -50 162 -125 78 -164 130 -165 218 -2 99
53 177 148 212 61 23 179 13 247 -20z"/>
<path d="M2602 7850 c-182 -25 -310 -116 -387 -274 -98 -200 -66 -416 84 -567
108 -107 216 -149 394 -150 115 -1 203 16 290 56 l57 26 0 156 c0 85 -3 153
-7 151 -172 -86 -162 -83 -265 -83 -91 0 -99 2 -140 30 -81 56 -110 161 -69
251 39 87 133 126 248 105 63 -11 183 -67 198 -91 19 -31 25 5 25 159 l0 168
-42 16 c-119 45 -269 63 -386 47z m276 -65 c105 -25 102 -20 102 -141 l0 -104
-51 25 c-28 15 -84 31 -127 37 -65 9 -86 9 -132 -5 -109 -32 -180 -126 -180
-238 0 -105 79 -211 178 -239 66 -18 171 -12 247 15 39 14 71 25 73 25 1 0 2
-42 2 -94 l0 -94 -62 -25 c-79 -31 -131 -40 -238 -39 -147 0 -250 37 -343 122
-238 217 -152 636 153 745 98 35 250 39 378 10z"/>
<path d="M3500 7851 c-253 -35 -427 -219 -443 -469 -8 -124 31 -251 104 -343
47 -60 145 -124 234 -154 75 -25 89 -27 220 -23 132 4 145 6 225 39 l85 34 3
157 3 157 -82 -41 c-69 -35 -92 -42 -159 -46 -91 -5 -137 7 -186 51 -50 43
-67 82 -67 149 1 75 34 134 95 168 84 49 229 28 337 -49 53 -38 52 -39 53 139
l0 165 -25 13 c-83 41 -286 68 -397 53z m272 -66 c110 -30 98 -14 98 -135 l0
-107 -47 23 c-63 29 -164 47 -224 39 -72 -10 -146 -60 -181 -122 -38 -67 -42
-167 -10 -229 73 -139 248 -186 420 -112 24 10 46 18 48 18 2 0 4 -43 4 -95
l0 -95 -37 -16 c-125 -52 -306 -63 -424 -25 -149 47 -252 149 -299 295 -16 49
-16 187 0 247 44 166 184 292 360 326 76 14 216 8 292 -12z"/>
<path d="M5045 7853 c-123 -16 -216 -76 -261 -170 -38 -77 -41 -195 -7 -258
29 -55 92 -113 190 -174 106 -67 117 -94 46 -107 -51 -10 -132 11 -198 52 -32
19 -60 32 -62 30 -4 -4 -6 -232 -4 -292 1 -15 81 -49 151 -63 88 -19 246 -15
322 9 126 39 213 152 211 275 0 33 -8 77 -16 97 -23 56 -91 123 -176 175 -105
64 -143 101 -130 125 24 44 119 12 222 -76 l67 -57 0 160 0 159 -61 41 c-84
56 -203 86 -294 74z m108 -53 c71 -11 150 -44 180 -78 15 -16 18 -34 15 -101
-2 -44 -3 -81 -4 -81 -1 0 -27 16 -59 35 -67 40 -132 53 -175 35 -35 -14 -45
-26 -53 -61 -10 -42 28 -85 128 -146 149 -91 198 -152 197 -248 -2 -174 -163
-272 -403 -245 -46 5 -105 17 -131 27 l-48 17 0 94 c0 86 2 93 18 87 145 -62
261 -55 286 17 16 45 -6 73 -111 142 -54 35 -112 79 -130 97 -87 91 -81 239
12 333 48 48 110 74 200 84 6 1 41 -3 78 -8z"/>
<path d="M5865 7849 c-144 -24 -266 -108 -343 -238 -62 -105 -81 -288 -42
-412 48 -157 179 -283 336 -324 81 -21 243 -21 314 1 167 50 293 177 336 338
21 80 18 234 -7 308 -51 153 -182 276 -338 318 -55 15 -192 20 -256 9z m261
-63 c202 -62 330 -264 304 -481 -12 -99 -25 -135 -72 -205 -90 -136 -237 -203
-419 -193 -151 8 -261 66 -352 186 -56 74 -80 165 -75 285 3 87 7 105 40 175
83 174 236 261 443 252 44 -2 103 -11 131 -19z"/>
<path d="M5888 7560 c-67 -36 -98 -103 -98 -209 1 -166 123 -262 257 -202 128
59 147 306 30 396 -49 37 -136 44 -189 15z m150 -50 c43 -26 65 -79 65 -156 1
-111 -60 -181 -146 -170 -72 8 -117 74 -117 170 0 141 97 217 198 156z"/>
<path d="M8475 7850 c-283 -39 -465 -307 -409 -601 33 -174 160 -316 333 -370
92 -29 250 -28 342 0 163 51 290 190 329 360 18 78 8 231 -20 304 -49 129
-173 245 -303 286 -76 23 -192 32 -272 21z m259 -70 c186 -64 296 -222 296
-424 0 -204 -116 -368 -301 -428 -135 -43 -322 -20 -432 53 -291 192 -239 671
85 794 101 38 251 40 352 5z"/>
<path d="M8495 7566 c-145 -63 -146 -351 -2 -417 103 -46 204 0 246 114 6 16
11 59 11 96 0 94 -36 167 -100 199 -50 25 -109 28 -155 8z m136 -52 c60 -30
90 -166 55 -247 -45 -106 -176 -115 -227 -15 -27 52 -30 146 -6 200 29 68 111
97 178 62z"/>
<path d="M9378 7849 c-154 -23 -256 -132 -266 -287 -4 -66 -2 -78 27 -136 34
-69 74 -107 179 -170 107 -65 124 -99 55 -112 -52 -10 -131 11 -206 56 l-67
39 0 -155 0 -155 53 -24 c72 -33 141 -45 261 -46 142 0 238 32 303 102 41 45
73 129 73 195 0 115 -62 197 -223 292 -89 53 -117 83 -97 107 30 37 122 5 216
-74 34 -28 64 -51 66 -51 3 0 2 246 -2 305 -1 17 -76 64 -142 89 -76 28 -153
37 -230 25z m204 -65 c24 -8 60 -26 81 -40 l37 -24 0 -91 0 -91 -22 16 c-45
32 -123 66 -156 66 -62 0 -112 -42 -112 -95 0 -26 51 -74 128 -119 43 -25 96
-61 119 -81 82 -70 105 -173 59 -270 -47 -102 -141 -148 -301 -147 -102 0
-169 11 -231 37 l-35 14 2 92 c1 78 4 90 18 85 9 -3 43 -14 75 -25 138 -48
251 1 212 92 -10 26 -34 46 -92 83 -119 73 -150 100 -178 156 -57 115 -18 252
93 320 74 46 208 56 303 22z"/>
<path d="M1381 7836 c-9 -12 -398 -933 -403 -955 -2 -11 32 -13 187 -11 105 0
193 4 197 8 3 4 17 34 30 67 l24 60 156 3 155 2 24 -66 c16 -46 30 -69 44 -73
11 -3 100 -4 197 -1 l177 5 -202 482 -202 482 -165 2 c-91 0 -175 2 -188 3
-12 2 -26 -2 -31 -8z m332 -45 c13 -5 73 -137 198 -431 98 -234 179 -431 179
-438 0 -10 -31 -12 -137 -10 l-137 3 -27 70 -27 70 -190 3 -190 2 -27 -69
c-14 -38 -33 -72 -41 -75 -27 -10 -264 -7 -264 4 0 20 361 865 373 872 14 10
264 8 290 -1z"/>
<path d="M1566 7570 c-6 -18 -54 -148 -101 -277 l-34 -93 139 0 139 0 -55 158
c-82 232 -81 229 -88 212z m63 -302 c1 -15 -8 -18 -59 -18 -33 0 -60 4 -60 8
0 9 30 97 50 147 l12 30 28 -75 c16 -41 29 -83 29 -92z"/>
<path d="M6803 7842 l-253 -2 0 -485 0 -485 173 -1 c94 0 180 -2 190 -4 16 -3
17 11 17 191 0 185 1 194 19 194 49 0 102 -80 189 -285 l38 -90 188 -5 c103
-3 190 -2 192 1 7 11 -169 368 -205 414 l-36 47 45 47 c50 51 70 102 70 178 0
118 -73 216 -194 260 -63 23 -159 28 -433 25z m303 -52 c106 -12 149 -27 200
-72 89 -78 99 -222 21 -307 -12 -13 -49 -36 -82 -51 l-59 -28 33 -7 c59 -13
105 -72 186 -240 41 -86 75 -161 75 -166 0 -11 -242 -10 -260 1 -5 3 -28 47
-49 97 -100 231 -135 272 -244 288 l-47 7 0 -201 0 -201 -140 0 -140 0 0 444
0 444 208 1 c114 1 248 -3 298 -9z"/>
<path d="M6880 7550 l0 -140 58 0 c65 0 131 26 156 61 10 15 16 44 16 80 0 46
-5 63 -24 86 -29 35 -83 53 -155 53 l-51 0 0 -140z m160 65 c22 -20 27 -83 10
-115 -10 -20 -59 -40 -96 -40 -23 0 -24 2 -24 91 l0 92 45 -6 c25 -2 55 -13
65 -22z"/>
<path d="M7763 7842 l-163 -2 -1 -445 c-1 -245 -2 -462 -2 -482 l-1 -38 192
-3 192 -2 0 485 c0 267 -3 485 -7 486 -33 3 -68 4 -210 1z m161 -57 c8 -21 8
-838 0 -859 -5 -14 -27 -16 -140 -16 l-134 0 0 444 0 444 134 1 c115 2 134 0
140 -14z"/>
<path d="M3990 7355 l0 -485 370 0 370 0 0 125 0 125 -177 2 -178 3 -3 53 -3
52 165 0 166 0 0 130 0 130 -166 0 -165 0 3 48 3 47 173 3 172 2 0 125 0 125
-365 0 -365 0 0 -485z m678 357 l3 -83 -163 1 c-90 0 -169 1 -175 0 -10 0 -13
-26 -13 -95 l0 -95 165 0 165 0 0 -80 0 -80 -165 0 -165 0 0 -100 0 -100 164
0 c90 0 171 -2 178 -5 11 -4 14 -22 12 -68 -2 -34 -3 -70 -4 -80 0 -17 -18
-18 -312 -15 l-313 3 -3 437 c-2 410 -1 437 15 441 10 3 151 4 313 3 l295 -1
3 -83z"/>
<path d="M2231 6175 c-237 -52 -400 -243 -418 -490 -13 -200 91 -392 264 -483
173 -91 418 -96 605 -13 l47 21 3 140 c2 77 2 140 0 140 -1 0 -24 -11 -50 -24
-195 -99 -399 -62 -479 87 -24 44 -24 180 0 224 52 96 140 138 273 131 72 -4
93 -10 161 -44 43 -21 81 -40 86 -42 9 -5 9 279 -1 295 -10 16 -115 50 -193
62 -87 15 -220 12 -298 -4z"/>
<path d="M3230 6175 c-292 -66 -473 -353 -405 -643 62 -261 291 -414 599 -399
111 5 173 19 260 57 l46 21 0 139 c0 77 -2 140 -5 140 -2 0 -19 -9 -37 -20
-53 -33 -155 -60 -224 -60 -175 0 -296 120 -281 280 6 66 24 105 68 149 57 57
83 66 200 66 103 0 107 -1 185 -40 43 -22 82 -41 87 -43 4 -2 7 64 7 147 0
173 9 157 -111 191 -98 28 -297 36 -389 15z"/>
<path d="M4936 6174 c-146 -46 -229 -157 -230 -304 0 -65 4 -82 29 -129 34
-62 75 -99 194 -173 101 -64 130 -96 113 -132 -15 -33 -71 -50 -139 -42 -43 5
-112 31 -195 74 -14 7 -9 -264 5 -276 31 -26 147 -54 243 -59 274 -15 437 89
452 286 8 123 -51 209 -208 301 -97 57 -147 96 -155 120 -10 31 4 59 38 76 48
26 120 5 212 -61 l76 -55 -3 137 -3 137 -42 32 c-23 18 -68 42 -100 54 -77 29
-218 36 -287 14z"/>
<path d="M5893 6175 c-94 -20 -194 -78 -258 -147 -195 -211 -191 -544 9 -744
63 -63 120 -97 216 -130 85 -29 282 -27 373 4 216 75 347 264 347 502 0 152
-44 263 -147 372 -126 131 -337 187 -540 143z m215 -309 c68 -35 104 -107 104
-207 0 -79 -23 -139 -71 -183 -25 -24 -42 -31 -89 -34 -41 -3 -68 1 -90 12
-132 68 -137 328 -8 407 37 23 115 25 154 5z"/>
<path d="M8793 6176 c-244 -56 -402 -260 -403 -521 0 -245 164 -454 401 -510
138 -32 323 -9 433 55 281 163 342 572 122 817 -56 62 -126 108 -214 141 -84
30 -245 39 -339 18z m210 -310 c68 -29 107 -104 107 -206 0 -135 -67 -220
-175 -220 -111 0 -175 83 -175 225 1 66 18 125 47 157 49 56 127 73 196 44z"/>
<path d="M9809 6177 c-142 -40 -228 -143 -237 -285 -9 -135 46 -216 219 -322
54 -33 103 -69 109 -80 54 -101 -112 -132 -274 -50 -32 17 -60 30 -62 30 -2 0
-4 -61 -4 -135 0 -126 1 -135 21 -146 137 -73 405 -78 537 -10 94 49 157 154
156 261 -1 114 -60 192 -215 284 -146 87 -180 135 -128 182 47 42 143 17 247
-66 l52 -40 0 140 0 140 -47 30 c-26 17 -72 40 -103 51 -69 26 -206 34 -271
16z"/>
<path d="M720 5669 c-118 -280 -216 -514 -218 -520 -2 -5 71 -9 185 -9 l189 0
29 80 29 80 194 -2 195 -3 27 -75 27 -75 191 -3 190 -2 -85 202 c-47 112 -145
345 -218 518 l-133 315 -193 2 -194 3 -215 -511z m465 11 c27 -74 50 -141 53
-147 3 -10 -22 -13 -107 -13 -61 0 -111 3 -111 8 0 19 106 300 111 294 4 -4
28 -68 54 -142z"/>
<path d="M3860 5660 l0 -520 380 0 380 0 0 115 0 115 -195 0 -195 0 0 90 0 90
180 0 180 0 0 115 0 115 -182 2 -183 3 1 28 c1 15 2 50 3 77 l1 50 190 0 190
0 0 120 0 120 -375 0 -375 0 0 -520z"/>
<path d="M6710 5661 l0 -521 185 0 185 0 0 220 c0 169 3 220 13 220 36 0 90
-25 118 -53 33 -35 108 -177 159 -304 l34 -83 183 0 182 0 -18 43 c-56 128
-164 343 -193 383 -18 25 -43 51 -56 58 -22 12 -22 12 21 43 105 74 139 174
102 301 -26 88 -98 153 -206 188 -46 15 -105 18 -381 22 l-328 4 0 -521z m508
328 c42 -15 64 -52 64 -110 0 -86 -50 -129 -152 -129 l-50 0 0 125 0 125 54 0
c29 0 67 -5 84 -11z"/>
<path d="M7880 5660 l0 -520 185 0 185 0 -2 518 -3 517 -182 3 -183 2 0 -520z"/>
<path d="M2540 4315 c-181 -41 -321 -174 -374 -354 -35 -119 -14 -289 47 -393
37 -64 137 -154 208 -188 91 -43 155 -53 298 -48 125 5 160 13 266 58 l45 19
0 156 c0 86 -3 155 -7 153 -5 -1 -44 -21 -87 -43 -77 -38 -84 -40 -177 -40
-92 0 -100 2 -141 30 -63 44 -91 103 -85 183 6 76 38 124 107 160 80 40 215
20 314 -47 23 -15 47 -31 54 -35 9 -6 12 30 12 163 l0 171 -36 15 c-117 48
-324 67 -444 40z m271 -45 c30 -6 78 -17 107 -26 l52 -17 0 -108 0 -108 -48
24 c-91 46 -190 56 -279 30 -37 -11 -62 -28 -96 -64 -50 -53 -67 -98 -67 -177
0 -100 81 -207 178 -234 61 -17 171 -12 232 11 30 11 63 23 73 26 15 5 17 -4
17 -90 l0 -95 -52 -20 c-117 -46 -229 -59 -343 -38 -140 24 -244 88 -315 190
-86 125 -94 321 -19 468 30 60 126 155 183 183 100 49 257 67 377 45z"/>
<path d="M3440 4314 c-234 -50 -390 -248 -390 -494 0 -152 44 -255 150 -354
117 -108 217 -140 415 -134 130 5 164 12 268 58 l47 21 0 155 c0 86 -3 154 -7
152 -5 -1 -44 -21 -87 -43 -77 -38 -84 -40 -177 -40 -92 0 -100 2 -141 30
-136 95 -108 304 47 355 82 27 209 -5 323 -80 l32 -22 -2 172 -3 173 -66 23
c-129 45 -283 56 -409 28z m271 -44 c30 -6 78 -17 107 -26 l52 -17 0 -109 0
-108 -22 14 c-41 26 -146 56 -198 56 -90 0 -139 -18 -196 -74 -57 -56 -74 -97
-74 -182 0 -100 81 -207 178 -234 66 -18 171 -12 247 15 39 14 71 25 73 25 1
0 2 -42 2 -94 l0 -94 -52 -20 c-87 -35 -138 -44 -238 -45 -155 0 -260 36 -356
125 -185 171 -180 481 10 656 109 100 293 144 467 112z"/>
<path d="M4981 4314 c-92 -25 -158 -78 -203 -164 -32 -63 -33 -196 -1 -255 29
-55 92 -112 190 -174 44 -28 83 -58 86 -65 11 -29 -11 -41 -75 -40 -64 1 -134
26 -205 74 l-33 22 0 -156 0 -156 40 -20 c106 -54 328 -69 447 -29 125 41 202
144 204 271 1 50 -4 79 -21 112 -26 56 -105 129 -193 180 -87 51 -125 90 -107
111 33 39 134 3 233 -85 l47 -42 0 29 c3 297 4 285 -21 306 -101 82 -261 115
-388 81z m259 -63 c30 -12 66 -31 80 -42 23 -20 25 -28 26 -110 0 -49 -1 -89
-4 -89 -2 0 -22 13 -45 28 -89 59 -166 70 -211 30 -64 -57 -35 -114 99 -195
150 -91 198 -151 196 -247 -2 -194 -195 -290 -474 -235 -26 5 -63 15 -82 23
l-35 15 0 92 c0 102 -7 97 80 63 60 -23 167 -25 202 -2 14 9 28 28 32 42 12
47 -10 74 -111 140 -153 100 -193 153 -193 259 0 105 72 199 182 239 69 24
180 20 258 -11z"/>
<path d="M5845 4318 c-126 -24 -251 -114 -320 -232 -62 -105 -83 -274 -50
-401 43 -164 190 -306 355 -344 58 -13 232 -14 289 0 162 37 305 179 352 349
22 79 17 225 -9 305 -38 115 -133 225 -244 281 -97 49 -247 66 -373 42z m254
-53 c88 -21 151 -58 216 -126 99 -104 138 -230 117 -379 -36 -256 -256 -414
-528 -380 -120 15 -198 54 -274 136 -90 97 -120 176 -120 313 1 176 87 325
230 397 103 53 239 67 359 39z"/>
<path d="M5892 4033 c-65 -32 -102 -108 -102 -208 0 -74 17 -123 58 -166 98
-102 254 -60 296 81 19 63 20 91 5 160 -12 56 -53 111 -100 136 -37 19 -116
18 -157 -3z m163 -66 c110 -110 39 -333 -100 -312 -73 11 -115 73 -115 169 0
112 50 176 139 176 35 0 49 -6 76 -33z"/>
<path d="M8443 4316 c-181 -42 -313 -169 -364 -351 -22 -77 -17 -237 10 -309
76 -212 254 -329 495 -328 246 1 421 129 492 360 18 58 19 201 3 267 -38 158
-155 285 -314 345 -77 28 -232 36 -322 16z m260 -51 c135 -35 243 -122 300
-242 31 -65 32 -73 32 -193 0 -115 -2 -129 -27 -184 -86 -183 -222 -268 -428
-268 -237 0 -398 120 -455 339 -27 104 -10 239 42 335 57 106 177 194 294 217
71 14 180 12 242 -4z"/>
<path d="M8495 4032 c-70 -45 -99 -103 -99 -201 -1 -119 47 -197 136 -221 64
-18 117 -4 164 44 51 50 68 104 62 196 -8 126 -65 192 -172 198 -47 2 -68 -1
-91 -16z m146 -48 c41 -21 69 -84 69 -157 0 -108 -47 -171 -129 -171 -90 0
-136 59 -135 174 0 72 18 116 60 149 32 25 92 28 135 5z"/>
<path d="M9367 4319 c-138 -32 -233 -141 -244 -281 -11 -120 54 -219 201 -308
92 -55 111 -73 103 -94 -16 -42 -156 -23 -250 35 -26 16 -51 29 -55 29 -5 0
-7 -241 -3 -301 1 -10 99 -47 156 -59 65 -15 243 -14 297 1 97 26 160 77 206
164 20 39 26 65 26 120 1 117 -53 191 -208 285 -93 55 -119 80 -114 107 5 28
69 29 124 3 25 -12 69 -44 98 -71 30 -27 57 -49 60 -49 3 0 6 69 6 154 l0 154
-39 31 c-93 74 -246 108 -364 80z m231 -62 c24 -8 61 -27 83 -42 l39 -28 0
-89 0 -90 -32 22 c-122 80 -245 78 -260 -4 -10 -50 16 -81 120 -145 114 -70
185 -140 201 -197 14 -51 14 -61 -5 -123 -19 -64 -74 -127 -133 -153 -97 -41
-265 -42 -388 -2 l-53 17 0 95 c0 86 2 93 18 87 53 -23 138 -45 170 -45 51 0
105 29 117 63 15 45 -10 75 -125 152 -57 39 -116 86 -131 105 -78 98 -55 259
48 337 81 62 222 79 331 40z"/>
<path d="M1353 4283 c-14 -35 -164 -390 -329 -780 -35 -83 -64 -155 -64 -160
0 -4 80 -7 177 -6 98 2 185 3 195 3 11 0 25 23 44 70 l27 70 156 0 156 0 24
-70 c13 -38 28 -70 33 -70 4 -1 92 -1 196 -1 149 0 186 3 184 13 -2 7 -93 228
-204 491 l-201 477 -189 0 -189 0 -16 -37z m545 -450 c113 -269 179 -438 173
-442 -6 -4 -69 -8 -140 -9 l-130 -1 -20 62 c-12 34 -25 68 -29 75 -7 9 -53 12
-197 10 l-189 -3 -27 -70 -26 -70 -137 -1 c-75 -1 -138 2 -140 5 -2 3 37 101
86 216 49 116 132 312 185 438 l96 227 156 0 156 0 183 -437z"/>
<path d="M1491 3872 c-35 -97 -66 -183 -69 -189 -3 -10 27 -13 132 -13 91 0
136 4 136 11 0 15 -120 353 -128 361 -4 4 -36 -73 -71 -170z m104 -62 c14 -40
25 -77 25 -82 0 -4 -30 -8 -66 -8 -36 0 -64 4 -62 8 2 4 16 45 32 90 16 45 33
79 38 74 4 -4 19 -41 33 -82z"/>
<path d="M3990 3828 l0 -493 365 3 365 2 0 128 0 127 -151 -3 c-199 -4 -199
-5 -199 58 l0 50 165 0 165 0 0 130 0 130 -165 0 -165 0 0 50 0 50 175 0 175
0 0 130 0 130 -365 0 -365 0 0 -492z m680 362 l0 -80 -175 0 -175 0 0 -100 0
-100 165 0 165 0 0 -80 0 -80 -165 0 -165 0 0 -102 0 -103 175 2 175 3 0 -85
0 -85 -315 0 -315 0 0 445 0 445 315 0 315 0 0 -80z"/>
<path d="M6560 4105 c0 -118 0 -338 -1 -487 l0 -273 181 -5 c99 -3 185 -3 190
-2 6 2 10 78 10 193 0 178 1 189 19 189 10 0 30 -9 44 -20 28 -22 97 -152 147
-277 l34 -82 193 -3 c106 -2 193 -2 193 -1 0 6 -155 331 -173 362 -11 20 -33
52 -48 72 l-28 36 29 21 c16 12 42 43 57 69 24 42 28 58 28 128 0 122 -50 201
-159 251 -77 35 -165 44 -453 44 l-263 0 0 -215z m660 141 c72 -24 143 -93
160 -156 30 -113 -11 -202 -119 -255 l-63 -31 40 -12 c23 -7 52 -26 68 -45 23
-27 184 -340 184 -358 0 -11 -224 -11 -251 0 -18 7 -36 36 -73 123 -51 118
-100 202 -132 229 -24 21 -79 39 -115 39 l-29 0 -2 -197 -3 -198 -138 0 -138
0 0 440 c1 242 1 441 1 443 0 2 125 2 278 0 231 -4 286 -7 332 -22z"/>
<path d="M6890 4019 l0 -142 70 6 c46 4 83 13 105 27 82 51 70 198 -20 236
-19 8 -62 14 -95 14 l-60 0 0 -141z m162 61 c45 -55 7 -135 -69 -146 l-43 -7
0 93 0 93 47 -6 c32 -3 53 -12 65 -27z"/>
<path d="M7600 3830 l0 -490 23 -1 c12 0 97 -1 189 -2 l168 -2 0 493 0 492
-190 0 -190 0 0 -490z m328 -2 l-3 -443 -135 0 -135 0 -3 443 -2 442 140 0
140 0 -2 -442z"/>
<path d="M2990 2419 c-96 -11 -198 -60 -264 -126 -163 -165 -162 -449 3 -606
142 -135 354 -165 569 -80 l62 25 0 134 c0 74 -2 134 -5 134 -3 0 -23 -11 -44
-24 -88 -56 -216 -70 -289 -32 -103 53 -122 200 -37 275 78 68 197 63 313 -13
l52 -35 0 149 0 149 -66 21 c-37 11 -92 23 -123 26 -31 3 -65 7 -76 8 -11 2
-54 -1 -95 -5z m263 -64 l57 -18 0 -93 0 -93 -56 26 c-106 48 -222 41 -291
-20 -98 -86 -97 -243 3 -325 22 -18 55 -37 74 -42 56 -16 150 -11 210 10 30
11 58 19 63 20 4 0 7 -36 7 -79 l0 -80 -54 -20 c-133 -49 -290 -48 -400 2 -72
33 -146 104 -181 173 -28 55 -30 66 -30 169 0 98 3 116 27 167 49 106 138 182
248 213 70 19 242 14 323 -10z"/>
<path d="M3780 2418 c-197 -17 -340 -133 -390 -318 -17 -60 -15 -177 4 -238
30 -103 117 -207 210 -252 138 -66 322 -65 477 1 l49 21 0 134 0 133 -70 -35
c-118 -60 -234 -57 -304 9 -60 57 -69 150 -22 219 60 90 201 98 327 19 28 -17
54 -30 57 -27 2 3 4 20 4 38 0 18 0 81 -1 140 l-1 106 -64 22 c-81 27 -180 37
-276 28z m248 -63 l52 -16 0 -95 0 -94 -22 14 c-34 21 -126 46 -172 46 -159 0
-258 -130 -215 -284 15 -53 85 -120 144 -136 60 -17 168 -8 228 18 l48 21 -3
-86 -3 -86 -54 -19 c-193 -65 -378 -36 -495 77 -74 71 -108 144 -114 246 -12
200 115 370 306 410 57 12 241 3 300 -16z"/>
<path d="M5830 2420 c-113 -14 -192 -52 -265 -131 -158 -169 -152 -441 16
-609 106 -106 265 -144 440 -104 217 49 355 279 306 509 -49 227 -252 364
-497 335z m175 -54 c157 -42 262 -158 283 -314 38 -277 -175 -484 -456 -443
-96 14 -164 47 -226 108 -205 203 -111 575 163 649 61 17 174 17 236 0z"/>
<path d="M5852 2180 c-70 -17 -112 -84 -114 -185 -2 -118 61 -195 158 -195 88
0 154 83 154 195 0 131 -87 212 -198 185z m100 -51 c48 -26 73 -145 44 -212
-30 -71 -107 -98 -160 -56 -73 57 -76 213 -5 263 27 18 91 21 121 5z"/>
<path d="M8070 2420 c-113 -14 -192 -52 -265 -131 -158 -169 -152 -441 16
-609 106 -106 265 -144 440 -104 210 48 345 262 309 490 -38 235 -248 384
-500 354z m175 -54 c157 -42 262 -158 283 -314 38 -277 -175 -484 -456 -443
-96 14 -164 47 -226 108 -205 203 -111 575 163 649 61 17 174 17 236 0z"/>
<path d="M8092 2180 c-70 -17 -112 -84 -114 -185 -2 -118 61 -195 158 -195 88
0 154 83 154 195 0 131 -87 212 -198 185z m100 -51 c48 -26 73 -145 44 -212
-30 -71 -107 -98 -160 -56 -73 57 -76 213 -5 263 27 18 91 21 121 5z"/>
<path d="M8843 2418 c-117 -17 -200 -84 -229 -184 -39 -136 13 -238 166 -327
69 -40 94 -66 79 -83 -26 -31 -135 -13 -212 36 l-47 30 0 -136 0 -135 43 -19
c92 -41 266 -50 369 -20 98 28 178 136 178 238 0 103 -45 160 -210 265 -69 45
-89 80 -51 92 35 11 99 -17 166 -72 l65 -53 0 134 0 134 -32 28 c-69 58 -184
87 -285 72z m169 -58 c91 -35 102 -48 104 -126 2 -37 1 -71 -2 -75 -2 -4 -26
6 -52 22 -84 52 -160 51 -187 -1 -28 -54 -2 -84 155 -184 114 -72 146 -163 93
-266 -36 -70 -92 -107 -187 -121 -76 -12 -201 0 -261 25 l-35 15 0 80 0 81 53
-21 c93 -37 197 -26 213 23 12 39 -16 77 -92 124 -127 79 -166 132 -166 224 0
97 55 172 149 206 57 20 154 17 215 -6z"/>
<path d="M1955 2410 c-25 -5 -38 -30 -195 -403 -93 -219 -172 -407 -175 -418
-6 -18 0 -19 162 -19 l169 0 21 58 20 57 138 0 138 0 20 -57 19 -58 170 0
c158 0 170 1 163 18 -23 63 -339 808 -344 814 -7 8 -267 15 -306 8z m430 -409
c85 -200 156 -369 159 -377 4 -12 -16 -14 -117 -14 l-123 0 -22 63 -22 62
-158 -3 c-86 -2 -161 -4 -166 -5 -4 -2 -18 -27 -30 -57 l-22 -55 -123 -3 c-97
-2 -122 0 -118 10 3 7 71 168 152 358 81 190 151 355 156 368 9 22 11 23 145
20 l136 -3 153 -364z"/>
<path d="M2037 2032 c-31 -86 -57 -160 -57 -164 0 -5 52 -8 115 -8 63 0 115 3
115 6 0 6 -110 317 -114 321 -1 1 -28 -68 -59 -155z m84 -39 c12 -38 24 -74
27 -80 3 -10 -11 -13 -52 -13 -31 0 -56 3 -56 6 0 9 52 154 55 154 2 0 13 -30
26 -67z"/>
<path d="M5017 2406 c-146 -54 -217 -216 -153 -351 28 -60 51 -82 153 -149 99
-64 105 -89 25 -94 -44 -3 -66 3 -120 29 -37 18 -71 33 -77 33 -6 1 -9 -47 -8
-124 2 -107 4 -126 20 -138 60 -44 257 -65 360 -38 107 27 166 78 197 170 43
127 -7 223 -164 317 -39 23 -80 53 -91 67 -19 25 -19 27 -3 39 10 7 24 13 31
13 28 0 90 -33 146 -76 l57 -45 0 135 0 135 -27 19 c-75 52 -116 66 -213 69
-64 2 -107 -1 -133 -11z m270 -62 l58 -30 3 -82 3 -83 -38 23 c-91 56 -149 63
-188 23 -48 -47 -23 -94 87 -160 172 -105 214 -207 136 -333 -59 -96 -282
-131 -434 -67 l-34 14 0 81 0 81 30 -16 c77 -40 188 -37 223 6 34 42 9 77
-109 154 -90 58 -132 113 -141 184 -7 53 20 131 60 168 61 58 107 73 209 69
62 -2 89 -9 135 -32z"/>
<path d="M6603 2412 l-213 -2 0 -420 0 -420 165 0 165 0 0 165 c0 154 1 165
19 165 42 0 102 -96 177 -282 l19 -48 163 0 c89 0 162 4 162 9 0 19 -143 307
-173 350 l-33 46 28 24 c45 36 68 91 68 161 0 100 -43 171 -132 216 -64 32
-149 40 -415 36z m342 -57 c74 -20 117 -52 144 -108 26 -54 27 -116 2 -166
-23 -45 -31 -52 -95 -84 l-49 -25 37 -12 c20 -6 47 -26 60 -43 23 -32 109
-196 139 -269 l16 -38 -117 0 -117 0 -43 103 c-76 178 -129 237 -212 237 l-30
0 0 -170 0 -170 -120 0 -120 0 0 380 0 380 223 0 c168 0 237 -4 282 -15z"/>
<path d="M6680 2160 l0 -120 50 0 c96 0 150 44 150 122 0 76 -56 118 -157 118
l-43 0 0 -120z m102 70 c27 -8 39 -18 47 -41 19 -54 -8 -92 -71 -104 l-38 -7
0 81 c0 88 0 88 62 71z"/>
<path d="M7300 1993 l0 -423 160 0 160 0 0 420 0 420 -137 1 c-76 0 -148 2
-160 3 l-23 3 0 -424z m280 -3 l0 -380 -120 0 -120 0 0 380 0 380 120 0 120 0
0 -380z"/>
<path d="M4190 2398 c-1 -35 -1 -805 0 -815 0 -10 70 -13 315 -13 l315 0 0
110 0 109 -152 3 -153 3 0 45 0 45 139 1 140 2 0 111 1 110 -140 3 -139 3 -1
35 0 35 148 3 147 3 0 109 0 110 -310 0 c-241 0 -310 -3 -310 -12z m578 -95
l-3 -68 -148 0 -147 0 0 -82 0 -83 140 0 140 0 0 -70 0 -70 -140 0 -140 0 0
-90 0 -90 149 0 c110 0 150 -3 153 -12 4 -11 3 -94 -1 -120 -1 -5 -122 -8
-271 -8 l-270 0 0 380 0 380 270 0 271 0 -3 -67z"/>
</g>
</svg>
