<?xml version="1.0" standalone="no"?>
<!DOCTYPE svg PUBLIC "-//W3C//DTD SVG 20010904//EN"
 "http://www.w3.org/TR/2001/REC-SVG-20010904/DTD/svg10.dtd">
<svg version="1.0" xmlns="http://www.w3.org/2000/svg"
 width="1080.000000pt" height="1080.000000pt" viewBox="0 0 1080.000000 1080.000000"
 preserveAspectRatio="xMidYMid meet">

<g transform="translate(0.000000,1080.000000) scale(0.100000,-0.100000)"
fill="#000000" stroke="none">
<path d="M4200 9919 c-227 -26 -392 -190 -421 -421 -22 -170 28 -316 145 -426
106 -98 195 -131 356 -132 216 0 369 88 454 262 122 249 28 551 -209 671 -81
41 -212 59 -325 46z m193 -54 c312 -66 448 -431 260 -703 -78 -113 -214 -177
-378 -175 -144 1 -246 43 -337 140 -162 174 -156 450 13 624 104 107 272 150
442 114z"/>
<path d="M4204 9636 c-38 -17 -77 -67 -94 -120 -17 -54 -8 -161 18 -213 33
-64 74 -88 153 -88 56 0 71 4 101 27 56 43 73 88 73 195 0 85 -2 94 -30 135
-17 23 -46 51 -65 60 -41 21 -113 23 -156 4z m151 -58 c38 -29 55 -76 55 -149
0 -103 -50 -169 -128 -169 -81 0 -132 65 -132 170 0 112 45 170 130 170 33 0
55 -6 75 -22z"/>
<path d="M5853 9919 c-147 -18 -252 -123 -269 -269 -16 -135 37 -212 226 -333
102 -66 90 -108 -28 -94 -50 6 -117 32 -169 67 l-33 22 0 -155 0 -155 48 -20
c76 -32 161 -45 284 -40 96 3 122 8 169 29 180 84 232 292 108 433 -23 25 -79
70 -126 98 -101 62 -136 92 -131 116 2 12 15 18 45 20 52 4 98 -19 181 -88
l62 -52 0 155 0 155 -39 31 c-67 53 -116 71 -241 85 -14 1 -53 -1 -87 -5z
m199 -65 c24 -8 60 -26 81 -41 l37 -26 0 -88 0 -88 -61 36 c-44 26 -76 38
-115 41 -49 4 -56 2 -84 -26 -58 -59 -33 -107 93 -179 152 -87 218 -178 203
-276 -24 -150 -136 -223 -341 -220 -76 1 -117 7 -170 25 l-70 23 -3 93 c-1 50
-1 92 1 92 3 0 36 -12 73 -26 55 -20 82 -25 131 -22 76 5 103 25 103 78 0 44
-13 57 -131 132 -134 86 -179 159 -166 268 13 110 84 187 200 216 61 16 156
10 219 -12z"/>
<path d="M6700 9918 c-301 -33 -489 -346 -395 -655 36 -120 157 -245 282 -293
44 -17 86 -24 173 -28 190 -7 298 33 407 153 170 185 171 491 2 670 -121 128
-267 176 -469 153z m251 -66 c132 -46 237 -153 275 -280 23 -75 23 -209 0
-283 -33 -112 -140 -230 -241 -268 -332 -124 -655 76 -655 406 0 180 101 346
250 410 107 46 264 52 371 15z"/>
<path d="M6705 9632 c-68 -44 -95 -101 -95 -204 0 -128 60 -207 164 -216 72
-6 126 22 163 85 25 42 28 58 28 133 0 98 -22 152 -77 191 -45 32 -141 38
-183 11z m146 -48 c92 -47 90 -262 -2 -309 -49 -26 -116 -15 -150 23 -47 52
-58 164 -23 234 32 64 109 87 175 52z"/>
<path d="M7598 9919 c-108 -15 -205 -86 -247 -179 -15 -32 -21 -66 -21 -118 0
-126 51 -199 207 -293 89 -54 103 -70 83 -94 -30 -36 -175 -5 -258 53 -16 12
-33 22 -36 22 -3 0 -6 -68 -6 -151 l0 -150 53 -24 c72 -33 140 -45 257 -45
140 0 216 25 285 93 59 60 85 122 85 206 0 102 -60 183 -199 268 -97 60 -123
82 -119 108 2 15 12 21 41 23 50 4 108 -24 180 -89 l57 -51 0 157 c0 177 3
171 -90 219 -86 45 -172 59 -272 45z m137 -50 c65 -12 127 -40 163 -72 19 -18
22 -30 22 -104 0 -46 -3 -83 -7 -83 -3 0 -14 6 -22 14 -9 8 -39 26 -67 40
-101 51 -194 25 -194 -53 0 -46 33 -80 137 -141 83 -48 150 -110 169 -157 22
-52 17 -127 -11 -182 -50 -101 -143 -145 -300 -145 -92 1 -179 16 -227 41 -27
13 -28 15 -28 104 0 83 2 90 18 84 143 -63 271 -58 288 10 12 48 -13 81 -110
143 -156 101 -207 181 -186 294 12 61 30 95 72 134 76 72 165 95 283 73z"/>
<path d="M2840 9429 l0 -480 348 3 c328 3 349 4 393 24 63 29 110 74 139 131
35 69 34 177 -3 249 -24 47 -63 90 -103 112 -13 7 -10 14 15 41 89 95 76 244
-29 333 -73 63 -105 68 -451 68 l-309 0 0 -481z m652 421 c81 -28 147 -112
148 -187 0 -66 -32 -115 -108 -163 l-43 -28 58 -27 c74 -33 100 -58 129 -120
42 -88 26 -184 -42 -251 -69 -70 -101 -76 -446 -81 l-298 -5 0 442 0 442 283
-5 c193 -3 294 -8 319 -17z"/>
<path d="M3170 9624 l0 -137 72 7 c106 10 151 48 151 130 0 89 -56 136 -162
136 l-61 0 0 -136z m133 75 c49 -22 60 -83 24 -125 -19 -21 -33 -27 -68 -28
l-44 -1 -3 83 -3 82 35 0 c19 0 46 -5 59 -11z"/>
<path d="M3170 9245 l0 -145 70 0 c124 0 180 45 180 143 0 100 -58 146 -182
147 l-68 0 0 -145z m153 84 c33 -15 49 -46 49 -93 -1 -59 -35 -86 -108 -86
l-54 0 0 95 0 95 45 0 c24 0 55 -5 68 -11z"/>
<path d="M4850 9430 l0 -480 360 0 360 0 0 140 0 140 -170 0 -170 0 0 340 0
340 -190 0 -190 0 0 -480z m328 93 l2 -343 170 0 170 0 0 -95 0 -95 -307 2
-308 3 -3 425 c-1 234 0 431 3 438 3 9 37 12 137 10 l133 -3 3 -342z"/>
<path d="M2903 8315 c-157 -49 -249 -176 -241 -335 6 -130 55 -198 225 -306
55 -35 104 -71 107 -79 20 -54 -124 -61 -224 -10 -30 15 -67 36 -82 46 -14 11
-29 19 -32 19 -3 0 -6 -76 -6 -170 l0 -169 48 -21 c164 -73 401 -77 538 -8 53
26 113 88 146 150 33 62 33 194 0 257 -32 60 -98 121 -190 177 -116 69 -142
92 -142 119 0 29 32 41 84 31 36 -7 125 -63 194 -122 l42 -37 0 175 0 175 -42
30 c-99 70 -171 93 -293 92 -49 0 -109 -6 -132 -14z m242 -49 c60 -15 112 -41
143 -69 20 -19 22 -30 22 -119 l0 -99 -33 25 c-55 42 -118 66 -175 66 -46 0
-58 -4 -83 -29 -60 -61 -30 -115 113 -202 57 -35 124 -84 150 -110 143 -143
72 -361 -140 -425 -92 -28 -283 -17 -389 22 l-43 16 0 103 0 104 58 -24 c144
-58 282 -32 282 54 0 41 -37 81 -128 136 -174 107 -231 202 -202 338 35 169
228 266 425 213z"/>
<path d="M3833 8315 c-182 -49 -330 -199 -378 -380 -19 -74 -19 -233 0 -304
32 -123 119 -243 225 -311 162 -104 416 -117 590 -31 266 132 374 463 243 741
-65 136 -200 246 -350 285 -72 19 -259 19 -330 0z m305 -50 c88 -21 157 -58
225 -124 105 -100 148 -203 148 -356 0 -234 -131 -414 -351 -479 -89 -27 -241
-23 -336 9 -145 49 -250 149 -304 290 -31 78 -34 249 -7 337 36 114 133 230
236 283 106 53 264 69 389 40z"/>
<path d="M3924 8016 c-46 -21 -101 -90 -114 -148 -27 -111 8 -242 78 -296 31
-24 44 -27 113 -27 71 0 80 2 115 31 57 46 78 95 83 192 3 90 -11 147 -51 198
-44 56 -154 80 -224 50z m156 -65 c38 -28 61 -75 67 -139 7 -75 -10 -135 -52
-180 -31 -34 -38 -37 -88 -37 -66 0 -100 21 -131 80 -29 57 -28 164 3 223 39
76 134 101 201 53z"/>
<path d="M5682 8310 c-145 -52 -225 -164 -225 -315 0 -138 42 -200 208 -310
64 -42 119 -83 122 -91 20 -53 -116 -60 -217 -12 -30 15 -70 36 -87 48 l-33
22 0 -171 0 -171 38 -19 c137 -70 394 -78 527 -17 161 73 234 260 162 409 -33
67 -99 128 -205 193 -85 51 -132 91 -132 111 0 7 12 19 26 25 51 24 149 -21
252 -115 l42 -40 0 175 0 175 -37 30 c-84 67 -167 93 -298 93 -63 -1 -106 -6
-143 -20z m262 -45 c29 -9 77 -30 107 -48 l54 -32 3 -103 3 -103 -43 29 c-62
42 -114 62 -165 62 -49 0 -97 -21 -107 -45 -25 -65 12 -116 135 -190 102 -60
171 -123 199 -179 29 -61 27 -138 -6 -204 -56 -112 -161 -163 -341 -163 -110
0 -126 3 -220 33 l-63 20 0 104 c0 57 2 104 5 104 3 0 23 -9 43 -19 80 -41
221 -50 264 -17 30 23 40 63 23 102 -10 26 -33 46 -91 82 -122 75 -175 122
-206 181 -53 102 -32 230 53 312 81 79 228 110 353 74z"/>
<path d="M6626 8314 c-181 -44 -341 -213 -381 -401 -64 -300 94 -573 380 -659
90 -27 268 -25 360 3 177 55 313 198 360 379 19 75 19 224 0 299 -48 181 -200
332 -381 379 -77 20 -256 20 -338 0z m359 -63 c207 -73 338 -275 322 -496 -11
-140 -45 -220 -136 -318 -99 -106 -207 -148 -374 -148 -160 1 -268 42 -370
143 -170 168 -189 454 -43 654 40 56 106 113 164 143 12 7 55 21 95 32 95 25
253 21 342 -10z"/>
<path d="M6714 8011 c-76 -35 -115 -112 -115 -225 0 -82 16 -135 54 -182 38
-45 81 -64 147 -64 131 0 212 114 197 277 -8 77 -36 134 -90 176 -49 40 -131
48 -193 18z m157 -57 c70 -35 97 -196 48 -285 -63 -115 -220 -96 -258 30 -26
87 -4 199 47 244 41 37 104 41 163 11z"/>
<path d="M7623 8308 c-76 -25 -158 -95 -193 -164 -19 -38 -26 -68 -28 -136 -3
-76 -1 -94 21 -140 31 -68 91 -127 187 -185 90 -54 120 -80 120 -105 0 -23
-37 -32 -108 -25 -59 5 -117 27 -189 72 l-43 26 0 -171 0 -171 43 -19 c160
-71 388 -77 529 -13 140 63 216 222 174 366 -22 76 -93 152 -210 223 -134 83
-159 109 -130 138 39 40 141 2 242 -90 l62 -56 0 175 0 175 -37 30 c-85 66
-165 92 -288 91 -64 0 -108 -6 -152 -21z m279 -48 c36 -11 83 -33 106 -50 l42
-30 0 -102 c0 -96 -1 -100 -17 -85 -10 8 -44 29 -77 46 -81 43 -155 44 -197 2
-62 -63 -30 -120 116 -206 105 -62 165 -116 196 -177 59 -116 -7 -275 -139
-334 -103 -47 -315 -47 -431 -1 l-56 22 -3 104 c-3 96 -1 103 15 96 193 -81
333 -66 333 35 0 41 -26 67 -145 145 -62 41 -124 90 -139 110 -58 75 -70 166
-36 257 57 154 244 226 432 168z"/>
<path d="M4640 7780 l0 -540 400 0 400 0 0 160 0 160 -190 0 -190 0 0 380 0
380 -210 0 -210 0 0 -540z m362 108 l3 -383 188 -3 187 -2 0 -100 0 -100 -340
0 -340 0 0 485 0 485 150 0 150 0 2 -382z"/>
<path d="M3840 6465 c-110 -25 -218 -85 -291 -162 -109 -116 -159 -246 -159
-413 0 -175 50 -301 164 -416 117 -117 261 -174 440 -174 180 1 312 49 426
157 126 119 187 279 177 466 -13 255 -157 448 -392 523 -101 33 -266 41 -365
19z m205 -336 c55 -15 119 -83 133 -142 28 -109 6 -229 -53 -289 -87 -90 -227
-71 -293 40 -25 43 -27 56 -27 152 0 96 2 109 27 151 30 50 57 73 109 87 46
14 58 14 104 1z"/>
<path d="M5935 6467 c-163 -42 -263 -158 -273 -318 -9 -149 51 -241 228 -350
109 -67 150 -102 150 -131 0 -96 -170 -105 -327 -17 -29 16 -55 29 -58 29 -3
0 -5 -69 -5 -154 l0 -154 63 -25 c85 -34 162 -47 281 -47 172 0 286 39 364
124 81 87 109 199 76 302 -24 78 -115 171 -234 239 -112 64 -147 91 -158 123
-21 60 36 110 111 98 50 -8 142 -57 196 -102 21 -19 42 -34 45 -34 3 0 6 67 6
150 l0 150 -47 35 c-107 78 -292 114 -418 82z"/>
<path d="M6990 6464 c-211 -45 -375 -206 -430 -420 -86 -335 106 -656 436
-730 111 -24 273 -16 374 19 237 83 381 293 381 557 0 172 -52 301 -166 416
-147 147 -370 207 -595 158z m250 -353 c20 -10 48 -38 64 -65 25 -40 30 -60
34 -129 7 -134 -27 -213 -108 -254 -142 -73 -280 38 -280 225 0 81 18 137 59
183 61 68 147 83 231 40z"/>
<path d="M8120 6464 c-71 -19 -154 -69 -191 -116 -56 -69 -73 -124 -73 -223 0
-78 3 -97 26 -141 34 -64 99 -123 214 -193 109 -67 134 -91 134 -130 0 -85
-160 -93 -313 -17 l-67 34 0 -154 0 -155 43 -18 c91 -39 191 -54 326 -48 142
6 196 20 280 75 124 82 176 264 112 390 -31 61 -109 131 -213 192 -115 68
-168 114 -168 147 0 38 17 60 56 73 63 21 157 -14 255 -96 l44 -37 3 148 c3
172 2 174 -103 225 -121 59 -251 75 -365 44z"/>
<path d="M2217 6463 c-4 -3 -7 -264 -7 -580 l0 -573 358 0 c370 0 465 7 537
39 59 26 122 86 153 145 24 45 27 62 27 146 0 87 -3 100 -30 149 -31 56 -84
105 -148 138 l-39 19 40 27 c131 86 150 257 41 381 -50 56 -124 93 -214 106
-77 11 -708 14 -718 3z m563 -208 c47 -24 70 -62 70 -114 0 -93 -57 -141 -170
-141 l-60 0 0 135 0 135 65 0 c39 0 78 -6 95 -15z m30 -471 c53 -31 74 -67 74
-127 -1 -107 -48 -148 -181 -155 l-83 -5 0 150 c0 82 3 153 8 157 14 15 148 0
182 -20z"/>
<path d="M4747 6463 c-4 -3 -7 -264 -7 -580 l0 -573 420 0 420 0 0 145 0 145
-212 2 -213 3 -3 433 -2 432 -198 0 c-109 0 -202 -3 -205 -7z"/>
<path d="M3983 4395 c-182 -49 -330 -199 -378 -380 -19 -74 -19 -233 0 -304
32 -123 119 -243 225 -311 162 -104 416 -117 590 -31 266 132 374 463 243 741
-65 136 -200 246 -350 285 -72 19 -259 19 -330 0z m305 -50 c88 -21 157 -58
225 -124 105 -100 148 -203 148 -356 0 -234 -131 -414 -351 -479 -89 -27 -241
-23 -336 9 -145 49 -250 149 -304 290 -31 78 -34 249 -7 337 36 114 133 230
236 283 106 53 264 69 389 40z"/>
<path d="M4074 4096 c-46 -21 -101 -90 -114 -148 -27 -111 8 -242 78 -296 31
-24 44 -27 113 -27 71 0 80 2 115 31 57 46 78 95 83 192 3 90 -11 147 -51 198
-44 56 -154 80 -224 50z m156 -65 c38 -28 61 -75 67 -139 7 -75 -10 -135 -52
-180 -31 -34 -38 -37 -88 -37 -66 0 -100 21 -131 80 -29 57 -28 164 3 223 39
76 134 101 201 53z"/>
<path d="M5832 4390 c-145 -52 -225 -164 -225 -315 0 -138 42 -200 208 -310
64 -42 119 -83 122 -91 20 -53 -116 -60 -217 -12 -30 15 -70 36 -87 48 l-33
22 0 -171 0 -171 38 -19 c137 -70 394 -78 527 -17 161 73 234 260 162 409 -33
67 -99 128 -205 193 -85 51 -132 91 -132 111 0 7 12 19 26 25 51 24 149 -21
252 -115 l42 -40 0 175 0 175 -37 30 c-84 67 -167 93 -298 93 -63 -1 -106 -6
-143 -20z m262 -45 c29 -9 77 -30 107 -48 l54 -32 3 -103 3 -103 -43 29 c-62
42 -114 62 -165 62 -49 0 -97 -21 -107 -45 -25 -65 12 -116 135 -190 102 -60
171 -123 199 -179 29 -61 27 -138 -6 -204 -56 -112 -161 -163 -341 -163 -110
0 -126 3 -220 33 l-63 20 0 104 c0 57 2 104 5 104 3 0 23 -9 43 -19 80 -41
221 -50 264 -17 30 23 40 63 23 102 -10 26 -33 46 -91 82 -122 75 -175 122
-206 181 -53 102 -32 230 53 312 81 79 228 110 353 74z"/>
<path d="M6776 4394 c-181 -44 -341 -213 -381 -401 -64 -300 94 -573 380 -659
90 -27 268 -25 360 3 177 55 313 198 360 379 19 75 19 224 0 299 -48 181 -200
332 -381 379 -77 20 -256 20 -338 0z m359 -63 c207 -73 338 -275 322 -496 -11
-140 -45 -220 -136 -318 -99 -106 -207 -148 -374 -148 -160 1 -268 42 -370
143 -170 168 -189 454 -43 654 40 56 106 113 164 143 12 7 55 21 95 32 95 25
253 21 342 -10z"/>
<path d="M6864 4091 c-76 -35 -115 -112 -115 -225 0 -82 16 -135 54 -182 38
-45 81 -64 147 -64 131 0 212 114 197 277 -8 77 -36 134 -90 176 -49 40 -131
48 -193 18z m157 -57 c70 -35 97 -196 48 -285 -63 -115 -220 -96 -258 30 -26
87 -4 199 47 244 41 37 104 41 163 11z"/>
<path d="M7773 4388 c-76 -25 -158 -95 -193 -164 -19 -38 -26 -68 -28 -136 -3
-76 -1 -94 21 -140 31 -68 91 -127 187 -185 90 -54 120 -80 120 -105 0 -23
-37 -32 -108 -25 -59 5 -117 27 -189 72 l-43 26 0 -171 0 -171 43 -19 c160
-71 388 -77 529 -13 140 63 216 222 174 366 -22 76 -93 152 -210 223 -134 83
-159 109 -130 138 39 40 141 2 242 -90 l62 -56 0 175 0 175 -37 30 c-85 66
-165 92 -288 91 -64 0 -108 -6 -152 -21z m279 -48 c36 -11 83 -33 106 -50 l42
-30 0 -102 c0 -96 -1 -100 -17 -85 -10 8 -44 29 -77 46 -81 43 -155 44 -197 2
-62 -63 -30 -120 116 -206 105 -62 165 -116 196 -177 59 -116 -7 -275 -139
-334 -103 -47 -315 -47 -431 -1 l-56 22 -3 104 c-3 96 -1 103 15 96 193 -81
333 -66 333 35 0 41 -26 67 -145 145 -62 41 -124 90 -139 110 -58 75 -70 166
-36 257 57 154 244 226 432 168z"/>
<path d="M2550 3861 l0 -541 298 0 c327 0 462 10 527 39 141 62 215 229 169
377 -14 47 -31 72 -81 123 l-64 64 30 31 c42 44 61 95 61 168 0 106 -62 196
-169 247 l-56 26 -357 3 -358 3 0 -540z m729 466 c68 -26 111 -64 137 -121 51
-108 13 -207 -102 -268 -43 -23 -56 -38 -31 -38 26 0 114 -49 146 -81 106
-106 94 -296 -24 -380 -74 -53 -126 -59 -482 -59 l-323 0 0 486 0 485 318 -3
c270 -3 324 -7 361 -21z"/>
<path d="M2910 4080 l0 -153 80 6 c86 7 132 24 154 60 41 64 26 161 -31 204
-30 23 -47 27 -119 31 l-84 5 0 -153z m132 90 c46 -13 68 -43 68 -91 0 -55
-26 -81 -88 -87 l-52 -5 0 97 c0 107 -1 106 72 86z"/>
<path d="M2910 3655 l0 -167 88 4 c143 7 197 52 197 163 0 111 -54 156 -197
163 l-88 4 0 -167z m139 104 c66 -14 91 -44 91 -109 0 -42 -4 -52 -31 -74 -25
-21 -41 -26 -85 -26 l-54 0 0 110 c0 123 -5 117 79 99z"/>
<path d="M4790 3860 l0 -540 400 0 400 0 0 160 0 160 -190 0 -190 0 0 380 0
380 -210 0 -210 0 0 -540z m362 108 l3 -383 188 -3 187 -2 0 -100 0 -100 -340
0 -340 0 0 485 0 485 150 0 150 0 2 -382z"/>
<path d="M4185 2309 c-325 -42 -511 -415 -359 -719 59 -117 189 -220 315 -249
66 -16 227 -13 294 4 186 49 319 204 347 403 49 353 -224 609 -597 561z m206
-53 c208 -45 349 -220 349 -436 0 -197 -118 -363 -301 -422 -91 -29 -231 -29
-317 1 -82 28 -126 57 -184 118 -104 112 -140 255 -103 412 58 246 291 383
556 327z"/>
<path d="M4194 2021 c-67 -41 -99 -119 -92 -221 10 -131 79 -204 190 -197 101
6 158 74 166 197 7 110 -28 189 -99 225 -40 21 -127 19 -165 -4z m161 -53 c38
-29 55 -76 55 -149 0 -103 -50 -169 -128 -169 -81 0 -131 66 -132 173 0 108
45 167 130 167 33 0 55 -6 75 -22z"/>
<path d="M5848 2309 c-220 -32 -337 -269 -222 -450 26 -41 79 -85 184 -152
102 -66 90 -108 -28 -94 -50 6 -117 32 -169 67 l-33 22 0 -44 0 -43 -175 3
-175 3 0 339 0 340 -190 0 -190 0 0 -480 0 -480 360 0 360 0 0 30 0 30 40 -20
c72 -37 165 -52 295 -48 113 3 125 5 188 36 80 39 128 97 153 181 41 137 -27
258 -200 355 -60 34 -116 80 -116 94 0 18 26 32 60 32 42 0 102 -33 176 -96
l54 -46 0 155 0 155 -37 30 c-91 71 -209 100 -335 81z m192 -59 c20 -5 57 -23
83 -40 l47 -30 0 -90 0 -91 -29 20 c-51 36 -114 61 -159 61 -35 0 -49 -6 -73
-29 -55 -55 -31 -101 89 -173 200 -121 248 -219 180 -365 -43 -92 -149 -138
-313 -136 -76 1 -117 7 -170 25 l-70 23 -3 93 c-1 50 -1 92 1 92 3 0 36 -12
73 -26 55 -20 82 -25 131 -22 76 5 103 25 103 78 0 44 -22 67 -133 135 -129
79 -177 156 -164 265 13 109 88 191 204 220 42 10 149 5 203 -10z m-862 -337
l2 -343 170 0 170 0 0 -95 0 -95 -307 2 -308 3 -3 425 c-1 234 0 431 3 438 3
9 37 12 137 10 l133 -3 3 -342z"/>
<path d="M6695 2309 c-325 -42 -511 -415 -359 -719 59 -117 189 -220 315 -249
66 -16 227 -13 294 4 186 49 319 204 347 403 49 353 -224 609 -597 561z m206
-53 c208 -45 349 -220 349 -436 0 -197 -118 -363 -301 -422 -91 -29 -231 -29
-317 1 -82 28 -126 57 -184 118 -104 112 -140 255 -103 412 58 246 291 383
556 327z"/>
<path d="M6704 2021 c-67 -41 -99 -119 -92 -221 10 -131 79 -204 190 -197 101
6 158 74 166 197 7 110 -28 189 -99 225 -40 21 -127 19 -165 -4z m161 -53 c38
-29 55 -76 55 -149 0 -103 -50 -169 -128 -169 -81 0 -131 66 -132 173 0 108
45 167 130 167 33 0 55 -6 75 -22z"/>
<path d="M7598 2309 c-108 -15 -205 -86 -247 -179 -24 -52 -28 -150 -9 -213
17 -58 94 -136 193 -197 91 -55 105 -71 85 -95 -30 -36 -175 -5 -258 53 -16
12 -33 22 -36 22 -3 0 -6 -68 -6 -151 l0 -150 53 -24 c72 -33 140 -45 257 -45
140 0 216 25 285 94 65 64 89 129 83 221 -6 100 -48 154 -195 251 -98 66 -118
83 -118 104 0 22 5 25 38 28 50 4 113 -27 182 -90 l55 -50 0 157 c0 177 3 171
-90 219 -86 45 -172 59 -272 45z m144 -50 c60 -13 123 -42 156 -72 19 -18 22
-30 22 -104 0 -46 -3 -83 -6 -83 -3 0 -20 11 -37 24 -111 84 -247 71 -247 -23
0 -46 34 -80 136 -139 84 -49 150 -110 171 -160 50 -120 -29 -268 -167 -309
-99 -30 -291 -18 -372 24 -27 13 -28 15 -28 104 0 83 2 90 18 84 66 -29 124
-44 170 -45 57 0 106 19 116 45 21 56 -9 96 -122 163 -136 81 -192 174 -172
284 12 61 30 95 72 134 76 72 176 97 290 73z"/>
<path d="M2840 1820 l0 -480 322 0 c360 0 397 5 479 65 148 107 131 364 -29
454 -15 9 -14 13 14 43 47 49 58 76 58 143 0 77 -31 143 -87 189 -77 62 -102
66 -447 66 l-310 0 0 -480z m672 408 c63 -29 113 -88 124 -145 15 -78 -40
-167 -124 -202 l-34 -14 74 -36 c121 -60 168 -156 134 -275 -12 -41 -28 -68
-58 -96 -67 -66 -100 -72 -440 -77 l-298 -5 0 442 0 442 283 -4 c281 -3 282
-3 339 -30z"/>
<path d="M3170 2015 l0 -135 33 1 c132 2 187 41 187 133 0 90 -55 136 -165
136 l-55 0 0 -135z m146 61 c21 -18 28 -32 28 -60 0 -50 -28 -76 -85 -79 l-44
-2 -3 83 -3 82 40 0 c28 0 48 -7 67 -24z"/>
<path d="M3170 1635 l0 -145 70 0 c39 0 86 6 105 14 67 28 94 120 60 202 -20
48 -78 73 -167 74 l-68 0 0 -145z m177 61 c29 -34 31 -94 4 -127 -14 -18 -31
-23 -80 -27 l-61 -4 0 97 0 97 57 -4 c46 -4 61 -10 80 -32z"/>
</g>
</svg>
