<?xml version="1.0" standalone="no"?>
<!DOCTYPE svg PUBLIC "-//W3C//DTD SVG 20010904//EN"
 "http://www.w3.org/TR/2001/REC-SVG-20010904/DTD/svg10.dtd">
<svg version="1.0" xmlns="http://www.w3.org/2000/svg"
 width="510.000000pt" height="800.000000pt" viewBox="0 0 510.000000 800.000000"
 preserveAspectRatio="xMidYMid meet">

<g transform="translate(0.000000,800.000000) scale(0.100000,-0.100000)"
fill="#000000" stroke="none">
<path d="M1642 7745 c-79 -31 -149 -77 -255 -170 -99 -86 -369 -376 -442 -473
-164 -221 -287 -548 -355 -946 -22 -129 -34 -382 -49 -1046 l-9 -375 -47 -215
c-59 -270 -67 -373 -35 -450 36 -87 121 -206 231 -325 205 -224 338 -396 364
-474 19 -59 34 -176 35 -273 l0 -77 -54 -54 c-79 -79 -109 -142 -114 -248 -4
-72 -1 -93 18 -137 47 -110 163 -160 267 -117 30 13 43 13 65 4 39 -16 174 -7
216 15 31 16 33 16 62 -5 55 -42 172 -36 274 12 39 18 45 18 72 4 37 -19 107
-19 170 0 27 8 52 15 57 15 11 0 -3 -82 -19 -107 -20 -32 -73 -56 -194 -88
-191 -50 -207 -55 -252 -84 -49 -31 -131 -124 -173 -195 -71 -121 -105 -264
-105 -441 0 -184 31 -248 196 -413 106 -105 114 -117 130 -175 76 -274 246
-498 456 -601 137 -68 226 -88 383 -88 222 -1 369 53 510 184 147 137 240 329
278 572 13 79 13 79 51 92 80 28 169 124 227 247 24 52 29 74 29 137 -1 48 -8
95 -20 130 -11 30 -22 87 -24 126 -9 149 -81 341 -164 437 -75 86 -132 238
-132 352 0 28 9 118 20 200 58 441 89 716 94 848 4 82 13 185 22 230 8 45 19
107 25 137 18 103 39 335 39 445 0 98 -5 131 -49 310 -28 110 -57 220 -65 244
-18 50 -15 64 7 29 8 -12 59 -95 114 -183 56 -88 137 -220 182 -294 163 -266
275 -377 440 -433 176 -59 357 -7 557 160 81 67 187 200 230 288 29 62 34 81
34 145 -1 163 -99 294 -250 332 -114 29 -175 -16 -332 -245 -64 -93 -98 -121
-134 -108 -57 22 -175 192 -546 785 -424 679 -501 812 -523 897 -9 34 -24 76
-32 93 -19 38 -88 122 -126 155 -17 14 -38 43 -47 65 -33 76 -123 188 -269
339 -163 167 -175 183 -281 371 -108 192 -129 224 -190 289 -117 125 -235 176
-404 176 -82 -1 -113 -5 -164 -25z m351 -173 c70 -32 144 -106 184 -187 46
-90 113 -192 152 -229 37 -36 38 -44 6 -75 -42 -40 -33 -54 70 -111 167 -92
318 -239 383 -372 59 -122 60 -133 16 -239 -20 -49 -41 -92 -45 -94 -4 -3 -54
6 -111 19 -308 72 -479 69 -902 -15 l-148 -30 -77 72 c-42 40 -134 133 -206
206 -80 81 -140 135 -157 139 -37 8 -76 -13 -115 -64 -50 -66 -67 -137 -60
-257 8 -137 54 -434 92 -590 39 -165 47 -243 49 -475 2 -187 3 -198 29 -265
39 -100 88 -169 181 -256 47 -44 94 -99 111 -130 28 -52 30 -61 36 -224 7
-167 11 -192 43 -267 34 -79 120 -149 201 -164 22 -3 46 -11 53 -17 7 -5 35
-54 63 -108 28 -54 76 -138 106 -186 64 -102 67 -121 28 -230 -28 -82 -85
-350 -85 -404 0 -20 -6 -56 -13 -80 l-14 -45 79 -84 c92 -100 134 -173 124
-213 -10 -42 -60 -68 -126 -65 l-55 3 -22 100 c-22 103 -46 165 -62 165 -30 0
-40 -59 -26 -162 4 -31 5 -68 1 -82 -9 -36 -54 -56 -124 -56 -71 0 -72 2 -72
103 -1 85 -13 144 -34 165 -14 14 -17 14 -34 -1 -14 -13 -21 -37 -25 -90 -6
-89 -30 -151 -63 -166 -14 -6 -52 -11 -85 -11 l-61 0 7 33 c4 17 20 66 36 107
35 91 36 105 5 125 -49 33 -91 -17 -106 -126 -14 -98 -45 -153 -88 -157 -62
-6 -110 89 -82 163 18 47 87 130 142 172 l50 38 -7 100 c-15 214 -63 422 -122
523 -15 25 -87 109 -161 186 -144 151 -278 314 -339 411 -34 54 -38 66 -37
125 1 36 15 137 32 225 18 88 39 199 47 245 19 105 32 392 45 930 10 435 17
522 66 737 54 243 136 426 270 603 241 320 456 540 593 610 89 45 112 50 216
46 75 -2 112 -8 148 -24z m-729 -1119 c221 -237 334 -337 393 -349 25 -5 34
-1 56 26 15 17 27 37 27 45 0 15 169 49 325 65 153 16 469 -5 545 -36 42 -18
70 -42 81 -71 6 -18 16 -23 42 -23 42 0 46 5 133 158 46 81 74 121 84 120 9
-2 24 -34 39 -83 19 -64 24 -105 24 -205 1 -111 -3 -139 -31 -250 -18 -68 -35
-126 -37 -128 -2 -2 -11 8 -20 22 -12 18 -26 26 -45 26 -57 0 -66 -50 -26
-148 30 -72 56 -185 56 -243 0 -38 -2 -41 -47 -60 -27 -12 -103 -47 -170 -79
-66 -32 -139 -61 -162 -65 -50 -8 -85 -34 -76 -56 3 -9 21 -25 40 -35 l33 -18
-32 -65 c-61 -121 -69 -161 -62 -285 l6 -111 -38 -50 -38 -50 -71 -3 -71 -3
-84 84 c-113 113 -118 126 -89 239 18 70 22 111 20 196 l-3 107 63 0 c51 1 66
5 77 20 18 24 14 37 -17 52 -240 114 -232 109 -302 200 -103 134 -226 204
-243 138 -8 -33 13 -58 43 -52 48 9 19 -28 -46 -58 -34 -17 -64 -35 -65 -40 0
-5 26 -11 59 -13 68 -5 143 -30 158 -53 8 -12 4 -25 -16 -51 -20 -26 -27 -46
-27 -81 0 -45 1 -46 38 -56 20 -6 60 -13 88 -17 28 -3 56 -9 63 -13 15 -10 31
-100 31 -178 0 -45 -7 -82 -25 -125 -37 -90 -34 -117 21 -185 26 -32 80 -92
121 -134 64 -65 74 -80 68 -100 -11 -35 -35 -59 -59 -59 -12 0 -54 -9 -95 -20
-115 -29 -141 -72 -67 -108 22 -11 42 -11 125 4 l99 17 45 -26 c52 -31 65 -58
44 -91 -29 -43 -82 -60 -206 -64 -168 -6 -306 18 -368 64 -38 29 -46 60 -68
278 -17 174 -30 247 -52 289 -8 16 -71 88 -139 160 -69 73 -138 151 -154 175
l-29 44 1 256 1 257 -51 202 c-112 444 -128 557 -93 692 22 89 34 111 59 111
9 0 61 -48 116 -107z m1900 -511 c78 -134 473 -762 599 -952 134 -201 280
-402 314 -433 36 -32 174 -97 206 -97 18 0 47 9 64 20 34 21 46 35 144 187 63
98 99 131 151 139 47 8 97 -28 131 -95 55 -109 26 -195 -116 -339 -91 -93
-178 -156 -269 -194 -62 -26 -81 -30 -144 -26 -67 3 -77 7 -142 51 -108 74
-214 209 -422 537 -68 107 -153 242 -190 300 -37 58 -122 193 -190 300 -67
107 -151 240 -186 296 l-63 101 19 63 c11 35 25 97 32 137 6 40 14 73 17 73 4
-1 23 -31 45 -68z m-60 -659 c141 -429 212 -683 237 -855 18 -123 3 -298 -55
-643 -9 -49 -20 -184 -26 -300 -12 -239 -22 -331 -55 -535 -46 -272 -57 -389
-53 -520 5 -146 12 -165 113 -321 114 -178 204 -374 181 -396 -3 -4 -33 -10
-66 -15 -50 -6 -93 -20 -142 -46 -5 -2 -8 4 -8 12 0 37 -156 311 -198 350 -23
20 -50 18 -65 -5 -8 -12 7 -46 62 -146 75 -138 121 -247 121 -288 0 -14 -2
-25 -5 -25 -2 0 -32 18 -66 40 -72 46 -118 51 -186 21 -47 -22 -133 -97 -133
-117 0 -19 -15 -25 -41 -16 -22 9 -23 12 -20 119 3 126 -8 199 -50 330 -32
100 -48 123 -84 123 -34 0 -36 -9 -19 -76 26 -108 54 -267 54 -312 0 -57 -17
-121 -39 -151 l-18 -23 -64 47 c-73 54 -130 85 -156 85 -46 0 -120 -38 -170
-87 l-54 -52 -29 40 c-47 66 -48 105 -1 247 37 113 67 185 101 239 12 18 11
25 -3 47 -23 34 -41 33 -71 -6 -131 -174 -181 -404 -121 -560 13 -33 -104
-128 -141 -114 -10 4 -14 22 -14 57 0 69 -17 120 -53 165 -36 43 -82 65 -157
73 l-55 6 3 49 c4 56 33 139 65 187 36 54 94 87 237 135 74 24 189 71 255 103
178 86 216 126 160 168 l-24 18 29 120 c35 146 89 304 137 399 36 72 192 312
245 376 34 41 34 44 7 81 -20 29 -21 29 -49 12 -16 -9 -32 -15 -34 -12 -3 3
-17 106 -31 229 -37 328 -64 547 -75 609 -9 51 -8 57 14 80 37 40 69 108 74
161 3 39 14 59 60 116 243 302 382 647 382 945 0 49 2 89 4 89 2 0 43 -116 90
-257z m-288 -129 c19 -104 -58 -287 -205 -483 l-56 -76 -3 70 c-4 84 12 211
32 259 12 29 20 35 58 41 23 4 54 14 67 22 25 16 25 15 5 121 -8 42 25 82 67
82 24 0 29 -5 35 -36z m-372 -780 c-31 -71 -78 -140 -105 -154 -16 -9 -27 -7
-53 10 -51 31 -58 44 -51 92 l7 43 106 31 c59 17 110 32 114 33 4 0 -4 -24
-18 -55z m-76 -452 c0 -9 13 -134 30 -277 18 -143 36 -301 42 -351 l10 -90
-83 -145 c-45 -80 -100 -187 -122 -237 -22 -50 -43 -92 -46 -92 -3 0 -13 16
-23 36 -27 58 -64 101 -112 131 -44 28 -44 28 -38 73 11 83 36 184 65 263 35
94 63 252 57 317 -3 32 -27 94 -71 185 -37 76 -67 138 -67 140 0 1 51 5 113 8
112 6 195 26 218 53 14 17 28 10 27 -14z m1092 -2348 c35 -40 50 -73 50 -109
0 -32 -68 -162 -115 -219 -39 -48 -99 -91 -113 -82 -5 3 -12 73 -16 155 -7
172 -2 195 59 254 52 50 91 51 135 1z m-1780 -24 c41 -21 70 -63 70 -100 0
-12 -14 -42 -32 -68 -40 -58 -77 -148 -78 -186 0 -29 0 -29 -21 -10 -37 33
-78 100 -91 147 -15 57 0 131 40 194 31 50 52 54 112 23z m1333 -46 c78 -78
56 -213 -54 -321 -42 -42 -59 -46 -59 -15 0 10 -13 60 -29 112 -44 140 -47
167 -25 192 55 61 125 75 167 32z m-625 -4 c41 -25 72 -76 72 -118 0 -38 -53
-181 -80 -214 l-18 -23 -44 31 c-54 40 -104 130 -114 210 l-7 58 41 38 c48 45
96 50 150 18z m302 -115 c31 -15 56 -37 65 -56 22 -41 42 -144 51 -252 6 -83
8 -87 28 -81 88 27 199 116 276 223 25 34 48 61 52 61 18 0 32 -94 32 -210 0
-97 -5 -143 -22 -206 -71 -263 -223 -430 -447 -490 -88 -23 -287 -21 -390 6
-195 49 -343 167 -429 340 -65 133 -90 240 -83 355 3 49 11 113 17 141 10 48
14 52 51 63 21 6 69 34 105 62 37 27 74 49 83 47 9 -2 23 -24 33 -56 9 -29 37
-83 62 -120 50 -75 171 -216 189 -220 29 -6 105 144 157 308 37 116 73 134
170 85z"/>
<path d="M1329 3989 c-46 -40 -82 -53 -149 -54 -50 0 -74 5 -104 23 -46 27
-66 17 -66 -33 0 -47 34 -71 122 -85 126 -22 204 4 247 81 26 46 26 65 2 79
-25 13 -24 13 -52 -11z"/>
<path d="M1515 3270 c-24 -10 -65 -47 -65 -59 0 -23 30 -33 63 -22 19 7 62 11
96 10 65 -2 102 16 86 41 -20 33 -130 51 -180 30z"/>
<path d="M2997 966 c-39 -75 -154 -196 -239 -253 -116 -76 -257 -117 -438
-126 l-55 -2 46 -23 c81 -38 173 -54 289 -50 91 4 114 9 172 36 146 67 234
206 263 420 4 28 3 52 -2 52 -4 0 -21 -24 -36 -54z"/>
</g>
</svg>
