<?xml version="1.0" standalone="no"?>
<!DOCTYPE svg PUBLIC "-//W3C//DTD SVG 20010904//EN"
 "http://www.w3.org/TR/2001/REC-SVG-20010904/DTD/svg10.dtd">
<svg version="1.0" xmlns="http://www.w3.org/2000/svg"
 width="2000.000000pt" height="2000.000000pt" viewBox="0 0 2000.000000 2000.000000"
 preserveAspectRatio="xMidYMid meet">

<g transform="translate(0.000000,2000.000000) scale(0.100000,-0.100000)"
fill="#000000" stroke="none">
<path d="M10781 15309 c-146 -25 -241 -113 -287 -264 -15 -49 -18 -87 -16
-205 1 -80 0 -178 -4 -217 l-6 -73 -74 0 c-165 0 -451 -127 -639 -283 -191
-158 -664 -744 -890 -1102 l-57 -90 5 -105 c8 -172 58 -300 156 -404 48 -51
52 -57 23 -40 -102 58 -195 205 -226 356 -22 105 -20 160 5 211 89 174 445
669 693 962 188 224 312 328 506 428 l95 49 -55 -7 c-84 -10 -240 -43 -312
-65 -123 -38 -221 -119 -320 -267 -21 -32 -67 -89 -101 -128 -112 -126 -173
-199 -217 -260 -24 -33 -88 -108 -142 -166 -159 -172 -204 -239 -274 -417 -43
-110 -166 -330 -203 -365 -29 -27 -47 -67 -53 -118 -2 -14 -20 -45 -41 -69
-20 -24 -53 -76 -74 -115 l-36 -72 30 -64 c76 -161 250 -282 557 -385 72 -24
139 -44 148 -44 9 0 19 -4 23 -9 3 -6 -8 -8 -27 -6 -18 2 -76 9 -128 16 -285
34 -527 152 -629 305 -20 30 -32 42 -36 33 -3 -8 -30 -100 -60 -206 -30 -106
-88 -274 -129 -375 -128 -315 -192 -523 -256 -834 -17 -82 -34 -158 -36 -170
-7 -28 110 -138 208 -195 84 -50 230 -109 338 -138 100 -26 49 -27 -102 -2
-189 33 -344 91 -443 166 -25 19 -49 35 -53 35 -4 0 -33 -22 -64 -50 -31 -27
-65 -50 -77 -50 -11 0 -64 -33 -118 -73 -54 -41 -150 -112 -214 -160 -149
-110 -227 -196 -282 -306 l-42 -85 -70 -27 c-104 -39 -129 -57 -212 -155 -133
-156 -128 -152 -178 -160 -43 -6 -96 -36 -85 -48 3 -2 25 0 49 5 24 5 45 8 46
7 2 -2 -25 -40 -60 -86 -99 -132 -174 -313 -175 -423 0 -14 -14 -51 -30 -81
-65 -120 -91 -248 -51 -248 17 0 171 94 171 104 0 2 -11 24 -25 47 -39 69 -30
67 41 -10 50 -54 72 -71 92 -71 33 0 97 29 137 61 17 13 47 33 68 43 23 12 56
45 85 85 27 36 85 117 130 179 l83 114 -44 41 c-64 60 -89 116 -95 209 -2 42
-1 89 3 105 8 27 8 26 16 -17 15 -78 64 -164 130 -224 56 -52 64 -56 109 -56
40 0 74 12 187 68 76 37 197 93 270 125 72 32 198 95 280 141 81 45 157 87
168 93 11 6 53 16 94 22 139 21 290 128 410 290 59 80 127 215 136 274 5 30
16 50 41 70 18 15 52 62 75 105 70 127 126 202 323 432 112 131 524 548 548
556 20 6 155 -95 317 -238 92 -81 133 -135 195 -253 57 -109 115 -144 239
-145 42 0 77 4 77 9 0 13 -38 61 -109 135 l-66 68 60 -37 c121 -76 229 -185
205 -209 -14 -14 -13 -63 2 -68 9 -3 6 -19 -10 -56 -12 -28 -25 -72 -29 -97
-3 -25 -11 -45 -17 -45 -26 -1 -40 -22 -46 -72 -4 -29 -19 -96 -33 -148 -25
-95 -47 -289 -47 -419 l0 -68 -39 -12 c-21 -6 -50 -20 -63 -30 -23 -19 -23
-22 -24 -218 0 -176 -4 -218 -32 -378 -37 -209 -37 -214 -15 -323 15 -73 21
-86 45 -98 18 -9 28 -23 28 -37 0 -12 6 -33 13 -47 12 -22 10 -30 -15 -69 -15
-25 -28 -53 -28 -62 0 -23 45 -76 80 -94 83 -43 357 -90 705 -121 177 -15 195
-15 247 0 64 18 108 61 108 105 0 15 -12 47 -28 71 l-27 44 -140 1 c-112 0
-157 5 -225 24 -95 25 -128 44 -53 30 67 -13 224 -16 306 -6 96 12 122 36 121
110 -2 61 -34 141 -64 157 -10 5 -21 21 -24 35 -8 30 -45 50 -111 59 -53 8
-71 17 -147 74 -38 28 -69 41 -150 59 -104 23 -216 70 -285 118 -21 15 -29 24
-18 20 198 -72 321 -99 378 -84 47 13 62 35 86 137 11 46 51 154 89 240 88
197 134 322 167 448 15 54 49 177 76 272 27 94 49 174 49 176 0 2 -57 6 -127
9 -124 5 -298 40 -342 68 -13 9 -12 9 4 4 11 -4 90 -9 176 -12 206 -7 296 10
351 68 60 63 82 134 82 269 1 128 -19 215 -73 330 -29 61 -42 74 -244 240
l-212 176 -52 -18 c-122 -42 -264 -46 -398 -12 -77 20 -223 89 -300 142 -113
78 -347 293 -366 336 -10 22 -15 43 -12 46 3 3 8 0 10 -7 11 -29 48 -65 106
-99 34 -21 96 -69 137 -107 262 -243 560 -325 812 -223 l61 25 141 -101 c312
-224 636 -470 636 -483 0 -8 -10 -30 -21 -50 -19 -31 -23 -57 -27 -176 l-5
-139 34 -14 c19 -7 50 -17 69 -21 19 -4 40 -14 46 -23 6 -8 34 -18 62 -23 29
-4 64 -17 79 -29 14 -11 44 -23 65 -26 31 -5 38 -10 33 -23 -4 -9 -9 -29 -12
-46 -5 -34 13 -50 68 -60 40 -7 73 19 162 127 l56 67 60 -44 c33 -24 147 -106
253 -183 228 -163 552 -397 803 -578 99 -71 335 -237 525 -369 190 -131 388
-268 440 -305 394 -278 465 -318 620 -348 61 -12 435 -46 683 -62 172 -11 197
-6 197 34 0 32 -44 165 -71 212 -45 81 -1 75 -483 72 -422 -3 -433 -3 -511 20
-44 12 -107 35 -140 51 -33 15 -238 155 -455 311 -217 156 -440 316 -495 355
-55 39 -199 143 -320 230 -121 87 -299 215 -395 284 -96 69 -276 199 -400 288
l-224 162 -3 50 c-2 27 3 76 12 109 21 81 19 173 -5 260 -24 86 -24 82 -5 82
25 0 37 49 31 120 -10 109 -23 140 -81 195 -38 36 -54 60 -59 87 -4 24 -18 46
-38 63 -28 24 -38 26 -112 24 -44 0 -155 -10 -246 -21 -194 -23 -249 -43 -265
-95 -13 -46 -29 -41 -22 7 7 52 29 85 69 106 24 12 331 64 381 64 13 0 7 156
-8 199 -13 37 -12 44 5 84 32 73 45 210 31 349 -18 174 -41 250 -135 448 -46
96 -89 191 -96 210 -19 55 -33 258 -31 460 2 137 -1 195 -12 225 -14 39 -14
38 -21 -85 -9 -146 -27 -261 -50 -310 -10 -23 -14 -26 -10 -10 3 14 8 89 11
167 7 180 -11 367 -38 403 -27 35 -150 140 -164 140 -11 0 -73 -123 -89 -177
-4 -12 -26 -38 -49 -58 -73 -62 -192 -83 -273 -46 -48 22 -71 47 -29 31 35
-13 109 -13 156 2 60 18 115 70 138 133 37 99 90 193 111 200 28 9 39 42 29
80 -13 45 1 155 22 176 9 9 15 20 12 23 -3 3 1 16 10 29 l16 24 -192 7 c-106
3 -206 8 -222 12 -29 5 -32 3 -55 -47 -30 -64 -115 -155 -152 -164 -96 -24
-158 70 -158 241 l0 82 -57 36 c-61 37 -61 42 -3 27 19 -5 47 -12 61 -15 25
-5 26 -8 32 -107 10 -162 58 -234 132 -198 40 19 90 88 115 158 l22 58 41 -9
c23 -5 153 -11 290 -15 l247 -6 0 27 c0 15 -5 36 -10 47 -9 16 -7 21 15 29 24
9 25 12 24 92 -2 111 -9 140 -39 155 -16 8 -24 19 -22 31 1 10 -13 38 -33 63
-21 27 -35 55 -35 72 0 17 -9 36 -22 47 -13 10 -39 32 -58 48 -122 102 -216
134 -385 130 -66 -1 -147 0 -180 4 -33 3 -84 2 -114 -3z m-151 -1926 c-46 -83
-117 -180 -164 -225 -50 -50 -92 -71 -181 -93 -191 -47 -388 -129 -400 -166
-8 -24 48 -189 91 -269 20 -36 54 -85 77 -109 55 -57 13 -37 -55 27 -80 75
-181 248 -202 349 -7 29 -4 35 36 64 92 68 320 160 448 180 36 5 83 19 106 30
55 26 147 111 214 198 30 39 57 71 58 71 2 0 -11 -26 -28 -57z m590 -483 c-34
-50 -86 -121 -117 -157 l-55 -65 30 -66 c17 -37 34 -92 38 -122 4 -30 18 -84
31 -120 86 -227 87 -230 87 -335 1 -120 14 -152 107 -265 34 -41 70 -93 80
-116 19 -42 56 -85 96 -111 l23 -15 -21 -30 c-20 -27 -20 -33 -9 -69 13 -37
14 -39 50 -33 34 6 39 3 75 -42 34 -42 45 -76 30 -92 -3 -3 -358 262 -602 450
l-102 79 19 32 c27 43 25 58 -10 92 -26 25 -30 36 -30 82 0 81 -34 143 -132
239 -79 77 -125 107 -250 164 -26 12 -78 49 -115 84 -80 73 -92 79 -127 61
-24 -13 -25 -13 -16 5 16 30 40 50 60 50 10 0 55 -32 100 -70 76 -65 145 -110
169 -110 16 0 29 62 19 89 -5 13 -7 25 -6 26 2 1 35 12 73 24 134 42 266 140
469 347 50 51 92 91 94 89 2 -2 -24 -45 -58 -95z"/>
<path d="M6681 7935 c-158 -28 -334 -99 -466 -188 -82 -56 -221 -197 -277
-282 -101 -153 -170 -325 -205 -507 -25 -130 -25 -457 0 -581 103 -512 433
-853 907 -938 121 -22 374 -17 498 10 509 108 827 463 908 1013 24 165 15 443
-19 588 -112 472 -406 774 -854 875 -99 23 -385 28 -492 10z m334 -441 c172
-44 326 -200 396 -400 110 -315 80 -717 -72 -970 -147 -243 -433 -328 -686
-204 -247 121 -388 468 -353 869 32 378 198 637 451 705 72 19 191 20 264 0z"/>
<path d="M9440 7940 c-483 -67 -850 -330 -1021 -730 -80 -189 -120 -461 -99
-687 55 -611 433 -1002 1046 -1084 119 -16 481 -6 598 16 117 21 246 63 253
80 4 12 -65 411 -73 423 -1 2 -31 -5 -66 -16 -186 -58 -459 -72 -623 -33 -216
52 -380 179 -468 362 -66 136 -78 189 -84 374 -4 136 -2 175 15 259 53 253
204 439 426 527 110 42 207 59 348 59 131 0 271 -23 383 -64 36 -13 67 -21 69
-17 11 23 109 431 104 436 -13 14 -156 58 -247 76 -110 23 -451 34 -561 19z"/>
<path d="M3320 6685 l0 -1225 275 0 275 0 2 513 3 512 455 0 455 0 3 -512 2
-513 275 0 275 0 0 1225 0 1225 -275 0 -275 0 -2 -467 -3 -468 -455 0 -455 0
-3 468 -2 467 -275 0 -275 0 0 -1225z"/>
<path d="M10590 6685 l0 -1225 275 0 275 0 0 403 0 402 101 123 c55 67 103
122 107 122 4 -1 140 -236 302 -523 l295 -522 323 -3 c177 -1 322 0 322 3 0 5
-574 954 -791 1310 -27 43 -49 84 -49 91 0 6 32 54 72 105 88 115 612 790 681
877 l49 62 -340 0 -341 0 -103 -150 c-57 -82 -137 -199 -178 -259 -41 -61
-119 -174 -172 -252 -54 -78 -137 -205 -185 -282 l-88 -139 -3 541 -2 541
-275 0 -275 0 0 -1225z"/>
<path d="M12820 6685 l0 -1225 780 0 780 0 0 230 0 230 -500 0 -500 0 0 290 0
290 450 0 450 0 0 225 0 225 -450 0 -450 0 0 255 0 255 475 0 475 0 0 225 0
225 -755 0 -755 0 0 -1225z"/>
<path d="M14560 7903 c0 -3 39 -78 86 -167 48 -89 190 -354 316 -591 126 -236
261 -487 299 -556 l69 -127 0 -501 0 -501 275 0 275 0 0 511 0 512 134 236
c500 886 666 1180 666 1185 0 3 -139 6 -309 6 l-308 0 -180 -432 c-99 -238
-196 -475 -214 -525 -19 -51 -36 -93 -39 -93 -3 0 -36 75 -72 168 -36 92 -135
328 -219 525 l-153 357 -313 0 c-172 0 -313 -3 -313 -7z"/>
<path d="M5710 5115 c-49 -22 -87 -62 -118 -120 -21 -41 -26 -64 -26 -130 0
-93 22 -151 75 -202 66 -63 158 -78 253 -42 98 36 146 118 147 250 1 71 -3 90
-28 138 -40 79 -100 115 -197 119 -48 1 -82 -3 -106 -13z m167 -82 c56 -37 83
-167 53 -257 -37 -113 -181 -130 -238 -27 -59 106 -20 274 71 300 37 11 82 5
114 -16z"/>
<path d="M7098 5123 l-38 -4 0 -255 0 -254 45 0 45 0 0 105 0 105 43 0 c68 -1
80 -17 117 -162 l13 -48 49 0 c41 0 49 3 44 15 -3 9 -13 44 -21 78 -21 83 -33
112 -56 133 -18 17 -18 18 19 49 36 32 37 35 37 98 0 71 -14 95 -68 124 -29
15 -164 24 -229 16z m189 -95 c25 -24 29 -54 12 -92 -13 -29 -55 -46 -110 -46
l-39 0 0 79 c0 89 2 90 74 85 23 -2 49 -13 63 -26z"/>
<path d="M9434 5113 c-83 -30 -133 -78 -159 -154 -18 -50 -19 -137 -3 -191 18
-60 79 -123 139 -143 59 -20 189 -21 245 -3 l39 13 3 128 3 127 -96 0 -96 0 3
-32 c3 -31 6 -33 48 -38 l45 -5 3 -57 c3 -50 0 -58 -19 -69 -29 -15 -112 -5
-152 19 -75 43 -102 172 -54 257 39 71 158 107 243 75 32 -12 39 -7 48 36 9
39 -1 44 -109 50 -61 4 -92 0 -131 -13z"/>
<path d="M11363 5122 l-33 -3 0 -187 0 -187 -21 45 c-11 24 -59 109 -106 187
l-86 143 -53 0 -54 0 0 -255 0 -255 40 0 40 0 0 197 0 198 53 -95 c28 -52 79
-141 112 -197 l60 -103 48 0 47 0 0 254 c0 140 -3 256 -7 258 -5 2 -23 2 -40
0z"/>
<path d="M11875 5122 l-140 -3 3 -254 3 -255 155 0 155 0 -3 38 -3 37 -107 3
-108 3 0 74 0 75 95 0 95 0 0 35 0 35 -95 0 -96 0 3 68 3 67 98 0 97 0 0 37
c0 20 -3 38 -7 40 -5 2 -71 2 -148 0z"/>
<path d="M14078 5123 l-38 -4 0 -255 0 -254 50 0 50 0 0 105 0 105 40 0 c52 0
75 -23 95 -97 33 -116 27 -108 80 -111 46 -3 47 -2 41 20 -3 13 -13 54 -22 91
-10 45 -26 80 -43 100 l-28 30 33 29 c63 56 68 141 11 196 -47 46 -130 59
-269 45z m154 -73 c51 -15 72 -61 52 -115 -9 -24 -58 -45 -104 -45 l-40 0 0
79 c0 95 10 103 92 81z"/>
<path d="M4961 5058 c18 -35 54 -102 80 -151 l49 -87 0 -105 0 -105 45 0 45 0
0 106 0 107 66 116 c37 64 75 131 86 149 l20 32 -55 0 -54 0 -52 -112 -52
-112 -38 79 c-20 44 -43 95 -50 113 -13 31 -16 32 -67 32 l-54 0 31 -62z"/>
<path d="M6340 4938 c1 -237 14 -278 105 -319 79 -36 179 -19 237 42 48 50 58
101 58 299 l0 160 -50 0 -50 0 0 -180 c0 -191 -7 -227 -49 -250 -32 -16 -86
-12 -114 10 -38 30 -47 77 -47 258 l0 162 -45 0 -45 0 0 -182z"/>
<path d="M8000 5083 l0 -38 67 0 68 0 3 -217 2 -218 50 0 50 0 0 221 0 221 43
-2 c104 -4 107 -3 107 35 l0 35 -195 0 -195 0 0 -37z"/>
<path d="M8725 5108 c-15 -38 -155 -482 -155 -490 0 -5 21 -8 47 -6 l47 3 21
70 21 70 75 3 c88 3 88 3 114 -85 l18 -63 49 0 c32 0 48 4 48 13 0 6 -36 120
-79 252 l-78 240 -62 3 c-43 2 -63 -1 -66 -10z m89 -159 c14 -46 28 -92 31
-101 6 -16 0 -18 -58 -18 l-65 0 29 90 c16 50 29 98 29 107 0 29 9 9 34 -78z"/>
<path d="M10008 4865 l-3 -255 153 0 152 0 0 40 0 40 -105 0 -105 0 0 215 0
215 -45 0 -44 0 -3 -255z"/>
<path d="M10590 4865 l0 -255 50 0 50 0 0 255 0 255 -50 0 -50 0 0 -255z"/>
<path d="M12710 4865 l0 -255 50 0 50 0 0 115 0 115 105 0 105 0 0 -115 0
-115 50 0 50 0 0 255 0 255 -50 0 -50 0 0 -100 0 -100 -105 0 -105 0 0 100 0
100 -50 0 -50 0 0 -255z"/>
<path d="M13440 4865 l0 -255 155 0 155 0 0 40 0 40 -110 0 -110 0 0 75 0 75
98 0 98 0 -4 35 -4 34 -92 3 -91 3 0 65 0 65 100 1 100 2 3 36 3 36 -150 0
-151 0 0 -255z"/>
<path d="M14690 4865 l0 -255 155 0 155 0 0 40 0 40 -110 0 -110 0 0 75 0 75
100 0 100 0 0 35 0 34 -97 3 -98 3 0 65 0 65 103 3 102 3 0 34 0 35 -150 0
-150 0 0 -255z"/>
<path d="M4295 4915 c-148 -7 -416 -19 -595 -26 -344 -14 -366 -23 -85 -33 94
-4 249 -11 345 -16 96 -5 274 -14 395 -20 121 -5 261 -13 312 -16 90 -6 93 -5
119 21 20 20 24 32 19 53 -14 59 -21 59 -510 37z"/>
<path d="M15137 4912 c-26 -28 -22 -78 7 -97 21 -14 81 -13 662 15 352 17 662
34 689 38 41 6 -1178 64 -1311 62 -17 0 -38 -8 -47 -18z"/>
</g>
</svg>
