<?xml version="1.0" standalone="no"?>
<!DOCTYPE svg PUBLIC "-//W3C//DTD SVG 20010904//EN"
 "http://www.w3.org/TR/2001/REC-SVG-20010904/DTD/svg10.dtd">
<svg version="1.0" xmlns="http://www.w3.org/2000/svg"
 width="1080.000000pt" height="1080.000000pt" viewBox="0 0 1080.000000 1080.000000"
 preserveAspectRatio="xMidYMid meet">

<g transform="translate(0.000000,1080.000000) scale(0.100000,-0.100000)"
fill="#000000" stroke="none">
<path d="M6326 9629 c-26 -5 -78 -23 -114 -39 -214 -98 -337 -303 -327 -550
16 -375 351 -617 739 -535 115 24 189 65 275 153 122 123 166 236 165 422 -1
171 -54 292 -180 410 -68 63 -112 90 -204 122 -64 23 -274 33 -354 17z m306
-65 c158 -38 291 -159 350 -320 17 -48 21 -81 21 -179 0 -98 -4 -131 -21 -179
-30 -80 -72 -144 -136 -204 -105 -99 -222 -137 -401 -129 -135 6 -212 31 -299
96 -83 63 -147 150 -177 242 -20 61 -24 93 -23 184 0 94 4 120 27 178 101 261
362 384 659 311z"/>
<path d="M6385 9305 c-72 -39 -115 -116 -120 -219 -8 -171 84 -284 225 -274
81 6 129 39 166 115 59 118 29 290 -61 359 -32 24 -49 29 -109 32 -51 2 -79
-2 -101 -13z m155 -57 c55 -29 83 -80 88 -163 8 -119 -33 -196 -114 -213 -61
-13 -105 0 -143 43 -81 93 -59 285 39 337 46 24 76 23 130 -4z"/>
<path d="M7365 9626 c-97 -31 -165 -79 -209 -150 -40 -63 -56 -117 -56 -185 0
-139 50 -215 215 -326 134 -90 150 -108 120 -131 -48 -37 -199 0 -312 76 l-33
22 0 -179 0 -179 38 -19 c113 -55 301 -79 437 -56 194 33 319 165 318 336 -1
133 -65 218 -252 335 -118 73 -141 98 -116 124 43 43 152 3 259 -95 l66 -61 0
185 0 185 -37 30 c-50 39 -116 72 -178 88 -62 17 -207 17 -260 0z m215 -51
c52 -6 145 -47 178 -77 20 -19 22 -31 22 -120 0 -54 -3 -98 -6 -98 -3 0 -21
12 -39 26 -75 57 -186 79 -244 49 -33 -16 -41 -33 -41 -81 0 -44 48 -93 156
-158 110 -67 147 -98 184 -155 83 -130 26 -298 -128 -373 -66 -33 -68 -33
-212 -33 -143 0 -209 10 -272 42 -28 13 -28 14 -28 119 0 97 1 106 18 99 114
-48 177 -61 246 -51 51 8 96 46 96 83 0 57 -22 78 -187 182 -64 40 -127 107
-148 158 -9 21 -16 66 -16 102 0 117 71 223 179 266 47 19 133 33 172 29 14
-2 45 -6 70 -9z"/>
<path d="M2640 9628 c0 -2 0 -255 0 -563 l-1 -560 216 -3 215 -2 0 193 0 194
118 6 c283 14 445 143 446 357 1 41 -5 95 -12 120 -30 100 -122 190 -237 230
-68 23 -81 24 -407 28 -186 2 -338 2 -338 0z m743 -87 c73 -30 135 -85 167
-147 34 -67 36 -198 3 -259 -67 -127 -194 -184 -417 -188 -69 -1 -116 -6 -117
-12 0 -5 0 -92 1 -192 l1 -183 -165 0 -166 0 0 506 0 505 318 -3 c306 -4 319
-5 375 -27z"/>
<path d="M3018 9261 l-3 -151 75 0 c122 0 180 48 180 148 0 100 -50 143 -172
150 l-77 5 -3 -152z m152 74 c32 -17 43 -44 38 -95 -4 -42 -39 -69 -93 -73
l-40 -2 -3 93 -3 92 36 0 c20 0 49 -7 65 -15z"/>
<path d="M4091 9608 c-5 -13 -109 -259 -231 -548 -122 -289 -224 -533 -227
-542 -5 -17 10 -18 219 -18 l225 0 32 85 32 85 178 0 177 0 30 -82 29 -83 228
-3 227 -2 -15 37 c-9 21 -116 275 -237 566 l-222 527 -218 0 c-217 0 -219 0
-227 -22z m442 -120 c109 -257 387 -918 387 -923 0 -3 -73 -5 -162 -5 l-163 0
-28 80 c-20 57 -33 80 -45 80 -9 0 -105 1 -213 2 -107 1 -200 -2 -206 -5 -5
-4 -22 -40 -38 -82 l-27 -75 -163 0 -164 0 19 43 c10 23 98 231 195 462 97
231 185 439 195 463 l19 42 179 0 180 0 35 -82z"/>
<path d="M4241 9118 c-40 -112 -76 -209 -78 -215 -4 -10 30 -13 151 -13 86 0
156 3 156 8 0 13 -145 422 -150 422 -3 0 -38 -91 -79 -202z m119 -72 c17 -48
29 -90 27 -92 -3 -3 -36 -4 -74 -2 l-70 3 36 97 c19 54 39 94 43 90 4 -4 21
-47 38 -96z"/>
<path d="M5040 9065 l0 -565 420 0 420 0 0 165 0 165 -200 0 -200 0 0 400 0
400 -220 0 -220 0 0 -565z m380 105 l0 -400 200 0 200 0 0 -105 0 -105 -360 0
-360 0 0 505 0 505 160 0 160 0 0 -400z"/>
<path d="M6488 7918 c-141 -17 -274 -84 -372 -190 -114 -122 -166 -260 -166
-437 0 -206 76 -374 223 -492 123 -99 254 -142 432 -141 223 1 388 75 510 230
100 126 141 261 133 437 -6 134 -34 221 -103 325 -136 205 -373 302 -657 268z
m263 -72 c302 -64 490 -366 424 -681 -23 -107 -77 -207 -155 -285 -109 -110
-240 -159 -421 -160 -289 0 -519 176 -575 442 -17 79 -14 219 7 293 36 131
152 278 266 338 117 62 306 84 454 53z"/>
<path d="M6585 7575 c-5 -2 -27 -6 -48 -10 -46 -7 -110 -62 -140 -119 -28 -56
-35 -192 -14 -267 19 -63 71 -129 121 -153 48 -23 147 -21 195 4 49 25 96 81
116 139 22 65 20 188 -5 255 -26 68 -92 132 -147 141 -21 4 -45 8 -53 10 -8 2
-19 2 -25 0z m112 -91 c60 -45 88 -168 63 -274 -33 -136 -180 -186 -271 -90
-57 60 -75 172 -44 276 25 84 73 116 168 111 38 -2 66 -10 84 -23z"/>
<path d="M7647 7920 c-143 -19 -269 -105 -323 -222 -26 -56 -29 -74 -29 -163
0 -81 4 -109 22 -147 33 -71 97 -134 218 -213 61 -40 119 -82 130 -95 l20 -22
-25 -20 c-21 -17 -35 -20 -97 -16 -72 5 -165 42 -250 98 l-33 22 0 -197 0
-196 63 -30 c88 -41 192 -60 322 -61 190 0 304 40 395 139 64 70 93 145 92
239 0 142 -80 251 -261 358 -46 27 -99 62 -117 79 -36 31 -45 71 -18 81 65 25
172 -19 277 -114 37 -34 67 -58 68 -53 0 4 0 94 -1 198 -1 189 -2 190 -27 217
-80 84 -274 138 -426 118z m224 -80 c37 -11 89 -35 116 -54 l48 -33 3 -117 3
-118 -34 26 c-97 74 -228 102 -284 60 -97 -72 -61 -144 131 -264 169 -104 235
-188 236 -296 0 -160 -109 -281 -284 -313 -164 -30 -443 12 -461 69 -3 11 -5
64 -4 120 3 110 2 109 69 75 45 -23 112 -37 180 -37 99 -1 150 32 150 97 0 52
-27 82 -148 159 -192 124 -237 185 -237 321 1 59 7 92 22 126 39 87 117 154
216 184 66 21 199 18 278 -5z"/>
<path d="M2370 7290 l0 -620 241 2 241 3 -2 206 -1 206 103 7 c137 10 224 29
302 66 167 79 250 247 212 429 -9 40 -26 92 -40 115 -55 94 -175 172 -301 195
-35 7 -198 11 -407 11 l-348 0 0 -620z m803 531 c92 -30 163 -89 202 -166 27
-54 30 -69 30 -155 0 -79 -4 -102 -23 -138 -72 -135 -228 -202 -471 -202
l-121 0 0 -215 0 -215 -177 2 -178 3 -3 544 c-1 300 0 551 3 559 4 12 60 13
338 10 310 -4 337 -6 400 -27z"/>
<path d="M2790 7504 l0 -169 82 3 c137 4 198 53 198 159 0 119 -49 163 -191
171 l-89 5 0 -169z m137 96 c40 0 83 -51 83 -99 0 -58 -32 -91 -94 -98 -35 -4
-50 -2 -57 8 -5 8 -9 53 -9 101 0 87 6 102 38 92 8 -2 25 -4 39 -4z"/>
<path d="M3737 7327 c-136 -321 -254 -600 -262 -620 l-15 -37 249 0 249 0 33
90 34 90 199 -2 199 -3 31 -87 31 -88 248 0 c203 0 248 2 245 13 -2 8 -118
287 -258 620 l-255 607 -241 0 -241 0 -246 -583z m849 128 c90 -214 194 -460
230 -545 37 -85 69 -161 71 -167 4 -10 -35 -13 -175 -13 l-179 0 -33 88 c-18
48 -37 90 -42 93 -5 3 -19 4 -31 3 -12 -1 -117 -3 -234 -3 l-211 -1 -34 -87
-34 -88 -177 -3 c-97 -1 -177 1 -177 5 0 5 27 71 59 148 134 318 361 854 384
908 l26 57 197 -2 196 -3 164 -390z"/>
<path d="M4140 7353 c-46 -126 -83 -234 -84 -241 -1 -9 35 -12 154 -13 85 0
162 0 171 0 13 1 0 47 -68 238 -46 131 -85 239 -87 240 -2 2 -40 -99 -86 -224z
m129 -81 l40 -112 -85 0 c-46 0 -84 2 -84 4 0 3 61 172 75 209 4 10 9 16 11
15 1 -2 21 -54 43 -116z"/>
<path d="M5020 7290 l0 -620 460 0 460 0 0 180 0 180 -220 0 -220 0 0 440 0
440 -240 0 -240 0 0 -620z m420 120 l0 -440 218 -2 217 -3 0 -115 0 -115 -395
0 -395 0 -3 545 c-1 300 0 551 3 558 3 9 49 12 180 12 l175 0 0 -440z"/>
<path d="M6755 6249 c-259 -27 -449 -157 -560 -384 -101 -206 -100 -452 2
-663 53 -107 176 -231 288 -289 233 -120 546 -115 766 13 78 46 192 159 237
236 70 119 109 284 99 424 -30 431 -380 709 -832 663z m166 -419 c49 -14 112
-71 140 -127 21 -42 24 -62 24 -163 0 -100 -3 -121 -24 -162 -89 -181 -321
-184 -412 -6 -46 90 -43 252 6 348 49 97 155 141 266 110z"/>
<path d="M8098 6249 c-118 -16 -212 -62 -286 -143 -112 -122 -140 -312 -67
-457 37 -72 113 -142 232 -213 173 -104 206 -140 183 -197 -35 -83 -224 -77
-387 11 l-73 39 0 -187 0 -187 50 -22 c213 -95 542 -89 716 12 59 34 121 107
157 183 28 59 32 77 32 152 0 71 -5 94 -27 143 -40 86 -122 161 -268 247 -142
83 -200 134 -200 174 0 38 16 63 50 81 78 41 215 -8 345 -124 l40 -35 3 184 3
185 -33 28 c-108 92 -312 147 -470 126z"/>
<path d="M1880 5541 l0 -701 250 0 250 0 0 249 0 249 133 7 c172 9 244 20 320
50 129 52 242 174 268 289 16 75 7 208 -20 279 -31 79 -114 168 -194 207 -127
61 -143 63 -594 68 l-413 4 0 -701z m687 386 c38 -20 61 -59 64 -108 10 -132
-50 -189 -200 -189 l-51 0 0 161 0 162 78 -5 c44 -3 91 -12 109 -21z"/>
<path d="M3760 6198 c-10 -24 -61 -144 -113 -268 -52 -124 -177 -418 -276
-653 -100 -235 -181 -430 -181 -432 0 -3 114 -5 253 -5 l252 0 41 108 41 107
259 0 259 0 40 -107 40 -108 252 0 c139 0 253 2 253 5 0 3 -127 306 -281 673
-155 367 -287 679 -293 695 l-10 27 -259 0 -258 0 -19 -42z m356 -641 l72
-202 -80 -3 c-43 -2 -112 -2 -152 0 l-73 3 76 207 c41 114 78 205 80 202 3 -3
38 -96 77 -207z"/>
<path d="M5020 5540 l0 -700 505 0 505 0 0 178 0 177 -257 0 -258 0 -3 523 -2
522 -245 0 -245 0 0 -700z"/>
<path d="M6510 4309 c-331 -32 -560 -290 -560 -628 1 -261 121 -458 348 -571
179 -88 464 -82 636 14 203 114 316 315 316 564 0 154 -45 282 -137 397 -139
171 -347 249 -603 224z m248 -74 c302 -71 483 -366 417 -680 -46 -217 -210
-386 -420 -430 -266 -56 -524 38 -653 237 -109 168 -121 401 -30 586 68 139
215 253 368 286 86 19 240 19 318 1z"/>
<path d="M6510 3949 c-35 -14 -88 -67 -109 -109 -25 -49 -32 -82 -32 -161 -1
-169 90 -279 228 -279 104 1 184 58 218 159 22 65 20 188 -5 254 -21 57 -77
119 -123 136 -35 14 -143 13 -177 0z m187 -75 c60 -45 88 -168 63 -274 -33
-136 -180 -186 -271 -90 -57 60 -75 172 -44 276 25 84 73 116 168 111 38 -2
66 -10 84 -23z"/>
<path d="M7647 4310 c-138 -17 -260 -99 -320 -214 -29 -57 -31 -68 -32 -166 0
-87 4 -113 22 -152 33 -71 97 -134 218 -213 61 -40 118 -81 128 -92 39 -44
-14 -71 -120 -60 -54 6 -161 51 -230 97 l-33 22 0 -196 0 -196 42 -21 c100
-51 197 -70 359 -70 180 0 290 40 379 138 62 68 92 144 93 238 2 135 -74 241
-248 348 -55 34 -115 75 -132 91 -35 30 -44 70 -17 80 64 25 172 -19 276 -114
36 -33 68 -60 70 -60 1 0 2 89 0 197 -3 196 -4 198 -29 225 -80 84 -271 137
-426 118z m224 -80 c37 -11 89 -35 116 -54 l48 -33 3 -118 3 -118 -36 27 c-98
75 -226 102 -282 60 -94 -70 -57 -151 118 -254 118 -70 191 -136 225 -206 66
-136 -10 -319 -161 -384 -131 -56 -382 -52 -522 10 l-42 18 1 116 c2 128 0
125 68 91 45 -23 111 -36 181 -36 101 0 149 31 149 96 0 52 -27 81 -147 158
-192 124 -238 186 -238 322 1 61 6 92 24 130 37 84 116 150 214 180 66 21 199
18 278 -5z"/>
<path d="M2370 3680 l0 -620 240 0 240 0 1 203 c1 111 1 205 0 210 0 4 16 7
37 8 350 6 540 120 582 346 32 177 -59 348 -223 423 -99 45 -153 50 -529 50
l-348 0 0 -620z m803 531 c92 -30 163 -89 202 -166 27 -54 30 -69 30 -155 0
-79 -4 -102 -23 -138 -72 -136 -227 -202 -471 -202 l-121 0 0 -215 0 -215
-174 0 c-149 0 -175 2 -180 16 -8 21 -8 1068 0 1089 6 15 36 16 338 13 310 -4
335 -6 399 -27z"/>
<path d="M2790 3896 l0 -166 48 -1 c85 -2 116 2 152 19 52 25 80 74 80 139 0
119 -49 163 -191 171 l-89 5 0 -167z m133 95 c18 -1 40 -13 59 -31 27 -28 30
-36 25 -77 -7 -62 -32 -85 -101 -91 l-54 -4 0 98 c0 55 2 102 4 106 2 3 12 5
22 3 9 -2 30 -4 45 -4z"/>
<path d="M3722 3683 l-261 -618 246 -3 c191 -2 248 1 255 10 4 7 20 48 35 91
l28 77 199 -2 199 -3 31 -87 31 -88 247 0 c137 0 248 3 248 8 0 4 -116 283
-257 619 l-258 613 -241 0 -241 0 -261 -617z m712 525 c38 -91 449 -1065 453
-1075 4 -10 -35 -13 -175 -13 l-181 0 -19 53 c-11 28 -25 68 -31 89 -13 40
-23 47 -61 42 -14 -1 -118 -3 -232 -3 l-206 -1 -34 -87 -34 -88 -178 -3 c-167
-2 -178 -1 -173 15 4 18 390 931 440 1046 l26 57 195 0 196 0 14 -32z"/>
<path d="M4140 3743 c-46 -126 -83 -234 -84 -241 -1 -10 36 -13 169 -13 94 0
169 3 168 8 -3 14 -164 467 -167 470 -2 2 -40 -99 -86 -224z m129 -81 l40
-112 -85 0 c-46 0 -84 2 -84 4 0 3 61 172 75 209 4 10 9 16 11 15 1 -2 21 -54
43 -116z"/>
<path d="M5020 3680 l0 -620 460 0 460 0 0 180 0 180 -220 0 -220 0 0 440 0
440 -240 0 -240 0 0 -620z m420 120 l0 -440 218 -2 217 -3 0 -115 0 -115 -397
-3 -398 -2 0 560 0 560 180 0 180 0 0 -440z"/>
<path d="M6325 2398 c-27 -5 -86 -27 -131 -48 -215 -104 -336 -339 -304 -591
37 -299 274 -500 588 -499 179 1 319 57 431 175 132 139 183 317 147 514 -22
122 -64 201 -155 291 -88 87 -148 122 -257 150 -84 22 -229 25 -319 8z m309
-64 c86 -21 152 -60 227 -134 109 -108 156 -235 146 -395 -9 -147 -62 -261
-164 -357 -95 -88 -210 -128 -368 -128 -164 0 -282 46 -386 151 -107 107 -156
244 -145 404 23 342 330 546 690 459z"/>
<path d="M6385 2075 c-79 -40 -120 -127 -118 -251 2 -158 92 -253 229 -242 73
6 125 42 158 110 67 139 27 320 -84 379 -43 23 -142 25 -185 4z m155 -57 c55
-29 83 -80 88 -163 7 -114 -33 -194 -108 -213 -110 -28 -200 58 -200 191 0 66
21 127 56 162 49 49 98 56 164 23z"/>
<path d="M7365 2396 c-165 -52 -265 -178 -265 -335 0 -139 50 -215 215 -326
134 -90 150 -108 120 -131 -48 -37 -199 0 -312 76 l-33 22 0 -180 0 -179 58
-26 c168 -75 426 -75 563 -1 106 58 172 169 172 289 0 132 -64 218 -252 335
-118 73 -141 98 -116 124 43 43 152 3 259 -95 l66 -61 0 185 0 185 -37 30
c-88 69 -193 102 -318 101 -44 0 -98 -6 -120 -13z m215 -51 c52 -6 145 -47
178 -77 20 -19 22 -31 22 -120 0 -54 -3 -98 -6 -98 -3 0 -21 12 -39 26 -75 57
-186 79 -244 49 -32 -16 -41 -33 -41 -77 0 -48 42 -92 153 -160 171 -105 222
-172 222 -288 -1 -109 -61 -197 -167 -246 -60 -28 -69 -29 -208 -29 -143 0
-209 10 -272 42 -28 13 -28 14 -28 119 0 97 1 106 18 99 114 -48 177 -61 246
-51 53 8 96 44 96 81 0 51 -28 82 -134 150 -166 105 -218 174 -217 287 0 161
104 274 271 297 30 4 66 6 80 5 14 -2 45 -6 70 -9z"/>
<path d="M2640 1836 l0 -566 215 0 215 0 0 195 0 195 80 0 c98 0 217 23 287
56 70 34 139 102 171 172 30 66 36 175 14 252 -30 100 -122 190 -237 230 -68
23 -81 24 -407 28 l-338 4 0 -566z m691 488 c126 -29 217 -113 239 -221 23
-109 -1 -200 -73 -274 -71 -73 -183 -107 -359 -111 l-118 -3 0 -192 0 -193
-165 0 -165 0 0 505 0 505 286 0 c224 0 300 -3 355 -16z"/>
<path d="M3020 2177 c-3 -3 -4 -71 -2 -151 l3 -146 72 0 c51 0 83 5 107 18 90
48 95 205 8 257 -30 18 -176 35 -188 22z m150 -72 c32 -17 43 -44 38 -95 -4
-42 -39 -69 -93 -73 l-40 -2 -3 93 -3 92 36 0 c20 0 49 -7 65 -15z"/>
<path d="M4091 2378 c-8 -20 -325 -773 -425 -1008 -20 -46 -36 -88 -36 -92 0
-4 100 -8 223 -8 l224 0 32 85 32 85 177 0 177 0 29 -81 c16 -44 34 -83 40
-85 6 -2 109 -3 228 -2 l217 3 -173 410 c-95 226 -201 479 -236 563 l-63 152
-219 0 c-217 0 -219 0 -227 -22z m417 -63 c26 -58 412 -975 412 -980 0 -3 -73
-5 -163 -5 l-163 0 -22 68 c-12 37 -26 72 -30 79 -9 14 -429 21 -441 7 -5 -5
-21 -42 -36 -81 l-28 -73 -164 0 c-90 0 -162 3 -160 8 3 4 98 227 211 496 114
269 209 493 212 498 3 4 85 8 183 8 l178 0 11 -25z"/>
<path d="M4241 1887 c-41 -111 -76 -208 -78 -214 -4 -10 30 -13 151 -13 86 0
156 3 156 8 0 13 -145 422 -150 422 -3 0 -38 -91 -79 -203z m119 -72 c16 -48
28 -90 26 -92 -2 -2 -35 -3 -73 -1 l-70 3 36 97 c19 54 39 94 43 90 4 -4 21
-48 38 -97z"/>
<path d="M5040 1835 l0 -565 420 0 420 0 0 165 0 165 -200 0 -200 0 0 400 0
400 -220 0 -220 0 0 -565z m380 105 l0 -400 200 0 200 0 0 -105 0 -105 -360 0
-360 0 0 505 0 505 160 0 160 0 0 -400z"/>
</g>
</svg>
