<?xml version="1.0" standalone="no"?>
<!DOCTYPE svg PUBLIC "-//W3C//DTD SVG 20010904//EN"
 "http://www.w3.org/TR/2001/REC-SVG-20010904/DTD/svg10.dtd">
<svg version="1.0" xmlns="http://www.w3.org/2000/svg"
 width="1080.000000pt" height="1080.000000pt" viewBox="0 0 1080.000000 1080.000000"
 preserveAspectRatio="xMidYMid meet">

<g transform="translate(0.000000,1080.000000) scale(0.100000,-0.100000)"
fill="#000000" stroke="none">
<path d="M1115 8596 c-71 -22 -119 -53 -168 -105 -57 -61 -82 -113 -96 -199
-31 -193 77 -353 314 -467 60 -29 155 -69 210 -90 82 -30 103 -35 119 -25 30
19 196 162 196 169 0 4 -17 13 -37 20 -21 8 -62 22 -91 33 l-53 20 37 40 c185
206 82 531 -191 604 -62 17 -187 17 -240 0z m236 -37 c101 -32 173 -92 221
-181 19 -36 23 -58 23 -138 0 -115 -21 -167 -101 -247 l-52 -52 89 -37 c49
-20 86 -40 84 -44 -3 -4 -36 -33 -74 -64 l-69 -57 -91 35 c-291 113 -417 198
-474 324 -30 67 -30 197 1 266 63 141 164 204 328 205 45 1 96 -4 115 -10z"/>
<path d="M1185 8391 c-73 -30 -107 -157 -66 -248 23 -50 57 -74 114 -80 50 -6
100 23 131 76 25 44 25 138 -1 188 -31 60 -115 89 -178 64z m118 -51 c56 -44
60 -153 7 -210 -46 -49 -125 -37 -155 25 -18 38 -20 117 -4 148 29 57 103 75
152 37z"/>
<path d="M5180 8601 c-106 -33 -172 -117 -172 -221 0 -94 46 -158 163 -228 19
-12 43 -30 52 -40 16 -17 16 -20 2 -32 -23 -19 -99 -6 -166 29 l-60 31 3 -117
3 -118 60 -24 c64 -25 177 -33 266 -18 69 12 133 58 163 119 57 114 22 213
-104 294 -36 23 -78 54 -95 68 -28 25 -29 27 -12 40 27 21 81 3 150 -51 l57
-44 0 119 0 119 -37 26 c-21 15 -58 33 -82 42 -45 16 -148 19 -191 6z m219
-60 c50 -26 61 -46 61 -110 0 -48 -12 -72 -25 -51 -13 21 -85 50 -123 50 -51
0 -78 -29 -73 -78 1 -18 49 -61 94 -83 50 -26 114 -85 134 -122 31 -61 12
-148 -43 -196 -68 -61 -224 -78 -339 -38 l-40 14 -3 73 c-3 67 -1 72 15 65 10
-5 43 -15 74 -23 49 -14 61 -14 94 -1 41 15 57 42 44 76 -4 12 -46 47 -92 76
-103 67 -132 108 -131 187 0 32 7 68 17 87 53 100 215 135 336 74z"/>
<path d="M6046 8595 c-55 -20 -107 -64 -134 -116 -19 -36 -23 -56 -20 -110 5
-91 34 -133 143 -206 47 -31 85 -62 85 -68 0 -43 -128 -27 -200 25 -15 11 -31
20 -34 20 -3 0 -6 -52 -6 -116 l0 -115 44 -20 c106 -47 287 -43 374 7 109 64
138 213 60 308 -17 21 -68 62 -114 92 -83 53 -105 84 -70 97 32 12 136 -40
176 -88 21 -25 25 -5 24 111 -2 106 -3 109 -30 131 -71 57 -210 80 -298 48z
m205 -40 c73 -26 89 -48 89 -122 l0 -63 -53 30 c-88 49 -167 35 -167 -30 0
-32 30 -61 126 -122 100 -64 135 -129 114 -209 -13 -49 -61 -105 -109 -126
-48 -22 -228 -23 -286 -1 l-40 15 -3 73 c-3 66 -1 72 15 65 87 -36 140 -42
182 -20 62 32 47 79 -46 139 -112 73 -145 118 -145 196 1 84 54 157 130 180
45 14 147 11 193 -5z"/>
<path d="M6689 8596 c-105 -28 -184 -99 -236 -212 -37 -80 -38 -208 -3 -299
27 -70 109 -157 181 -192 96 -47 253 -49 354 -4 96 43 166 125 199 235 17 56
15 170 -3 231 -33 106 -144 212 -254 241 -63 17 -176 17 -238 0z m281 -57 c70
-33 126 -89 159 -159 22 -47 26 -68 26 -150 0 -111 -18 -162 -84 -233 -62 -67
-144 -101 -251 -101 -100 -1 -149 12 -214 56 -58 38 -98 91 -127 167 -27 72
-23 181 10 257 30 68 103 139 177 170 51 21 72 24 154 22 78 -3 105 -8 150
-29z"/>
<path d="M6727 8370 c-86 -75 -69 -248 29 -295 41 -19 92 -15 131 10 54 36 80
155 49 228 -36 88 -142 116 -209 57z m158 -40 c17 -17 20 -33 20 -96 0 -73 -1
-77 -33 -105 -79 -71 -171 0 -160 122 6 57 33 101 69 110 32 8 79 -6 104 -31z"/>
<path d="M8439 8597 c-173 -49 -280 -208 -267 -397 10 -129 91 -251 203 -305
103 -50 256 -52 362 -5 61 27 139 104 169 167 94 200 18 425 -175 516 -53 25
-78 30 -155 33 -55 3 -109 -1 -137 -9z m273 -54 c65 -30 133 -95 165 -162 24
-49 28 -68 28 -146 0 -82 -3 -97 -33 -157 -49 -99 -122 -154 -236 -178 -227
-47 -426 107 -426 331 0 155 87 279 229 326 58 19 217 11 273 -14z"/>
<path d="M8488 8385 c-64 -35 -87 -162 -45 -245 60 -121 214 -96 247 39 20 86
-10 178 -70 208 -33 17 -99 16 -132 -2z m130 -39 c18 -11 42 -74 42 -110 0
-103 -72 -161 -149 -121 -39 19 -54 63 -49 135 6 88 49 127 120 109 15 -4 31
-10 36 -13z"/>
<path d="M9126 8595 c-126 -48 -190 -187 -137 -300 25 -54 60 -88 143 -141 83
-54 88 -77 18 -82 -36 -2 -60 4 -112 31 -79 39 -75 44 -72 -97 2 -110 1 -108
79 -130 149 -43 314 -19 381 56 31 33 52 79 60 127 14 87 -47 171 -184 253
-44 26 -62 43 -62 58 0 48 124 9 184 -58 11 -12 23 -22 28 -22 4 0 8 51 8 113
0 128 -2 133 -90 178 -57 29 -185 36 -244 14z m247 -59 l47 -27 0 -69 0 -68
-52 29 c-86 47 -168 32 -168 -30 0 -32 30 -62 110 -111 73 -45 98 -68 121
-112 25 -48 24 -88 -3 -144 -34 -74 -115 -113 -233 -114 -59 0 -162 23 -178
39 -7 7 -13 41 -13 77 -1 57 1 64 15 58 84 -36 167 -39 202 -8 39 36 16 76
-76 135 -71 45 -121 97 -131 135 -11 44 2 122 27 159 13 20 46 47 74 61 44 23
59 25 131 22 66 -4 90 -9 127 -32z"/>
<path d="M1683 8368 c3 -176 8 -245 21 -284 46 -146 176 -227 366 -227 163 -1
273 44 337 136 55 81 62 123 63 365 0 119 1 223 0 230 0 9 -35 12 -140 12
l-140 0 0 -172 c0 -204 -11 -293 -38 -321 -30 -30 -101 -34 -134 -8 -41 33
-48 77 -48 299 l0 202 -146 0 -146 0 5 -232z m247 -8 c7 -261 21 -297 122
-315 80 -15 151 37 164 121 3 25 7 125 8 222 l1 177 105 0 105 0 -1 -210 c0
-230 -6 -264 -55 -338 -53 -80 -160 -125 -299 -125 -167 0 -271 56 -329 178
-25 53 -26 63 -29 263 -2 114 -1 214 1 222 4 10 29 13 104 12 l98 -2 5 -205z"/>
<path d="M2560 8230 l0 -370 145 0 145 0 0 370 0 370 -145 0 -145 0 0 -370z
m248 3 l2 -333 -105 0 -105 0 0 328 c0 181 3 331 6 334 3 4 49 6 102 5 l97 -2
3 -332z"/>
<path d="M2940 8230 l0 -370 275 0 275 0 0 100 0 100 -130 0 c-79 0 -130 4
-131 10 -1 6 -2 22 -3 38 l-1 27 123 3 122 3 0 94 0 94 -122 3 -122 3 0 35 -1
35 133 3 132 3 0 94 0 95 -275 0 -275 0 0 -370z m508 272 l3 -63 -128 2 -128
1 -3 -71 -3 -70 123 -3 123 -3 1 -57 1 -58 -124 0 -123 0 0 -80 0 -79 133 -3
132 -3 0 -55 0 -55 -240 0 -240 0 -3 320 c-1 176 0 325 2 332 4 9 63 12 238
10 l233 -2 3 -63z"/>
<path d="M3540 8230 l0 -370 140 0 c77 0 140 3 140 8 1 4 2 69 2 145 1 75 5
137 9 137 4 0 67 -65 140 -145 l133 -145 123 0 123 0 0 370 0 370 -145 0 -144
0 -3 -147 -3 -148 -135 147 -135 147 -122 1 -123 0 0 -370z m386 158 l169
-181 5 179 5 179 100 0 100 0 3 -332 2 -333 -94 0 -95 0 -163 176 -163 176 -3
-176 -2 -176 -104 0 c-85 0 -105 3 -110 16 -3 9 -6 157 -6 329 0 241 3 314 13
318 6 3 49 6 93 6 l82 1 168 -182z"/>
<path d="M4430 8230 l0 -370 278 2 277 3 -1 25 c-1 14 -2 58 -3 98 l-1 72
-130 0 -130 0 0 40 0 40 123 0 122 0 -2 87 c-1 49 -3 91 -3 96 0 4 -54 7 -120
7 l-120 0 0 40 0 40 130 0 130 0 0 95 0 95 -275 0 -275 0 0 -370z m508 272 l3
-64 -28 2 c-15 1 -74 2 -130 1 l-103 -1 0 -70 0 -70 125 0 125 0 0 -60 0 -60
-125 0 -125 0 0 -80 0 -80 135 0 135 0 0 -60 0 -60 -240 0 -240 0 0 328 c0
181 3 332 7 336 4 4 109 6 233 4 l225 -3 3 -63z"/>
<path d="M7250 8230 l0 -370 145 0 144 0 3 147 3 146 69 -92 c55 -72 72 -89
82 -79 6 7 39 48 72 91 33 43 62 74 65 70 2 -4 4 -69 4 -143 l0 -135 142 -3
141 -3 0 371 0 370 -128 0 -127 0 -85 -110 c-47 -60 -88 -109 -92 -110 -4 0
-46 50 -93 110 l-86 110 -130 0 -129 0 0 -370z m241 328 c9 -7 53 -62 99 -123
46 -60 86 -113 90 -118 3 -4 50 49 104 118 56 72 107 127 119 130 12 3 58 5
102 3 l80 -3 3 -310 c1 -170 0 -320 -3 -332 -5 -22 -10 -23 -110 -23 l-105 0
-2 180 -3 180 -89 -115 -89 -115 -71 92 c-39 51 -81 103 -93 117 l-22 26 -1
-182 0 -183 -105 0 -105 0 0 328 c0 181 2 331 5 333 2 3 44 6 92 7 61 2 93 -1
104 -10z"/>
<path d="M755 7366 c-83 -21 -141 -55 -195 -112 -150 -159 -156 -407 -13 -565
82 -91 245 -182 481 -268 l113 -41 114 97 c63 53 115 99 115 102 0 4 -28 16
-62 28 -35 12 -80 29 -101 38 l-38 16 36 37 c19 20 50 66 67 100 40 80 50 197
24 284 -35 120 -136 228 -253 270 -72 26 -217 33 -288 14z m216 -40 c37 -8 84
-23 105 -34 58 -30 134 -110 163 -172 22 -47 26 -69 26 -150 0 -84 -3 -102
-29 -154 -16 -32 -53 -83 -83 -113 -30 -30 -53 -56 -51 -57 1 -2 44 -21 95
-42 105 -44 105 -36 2 -120 l-69 -57 -78 29 c-219 79 -352 149 -442 231 -99
91 -141 207 -121 334 37 228 240 356 482 305z"/>
<path d="M812 7134 c-87 -44 -119 -189 -62 -282 62 -101 213 -94 261 12 23 50
25 155 5 194 -8 15 -28 40 -45 56 -38 36 -109 45 -159 20z m112 -38 c85 -35
90 -218 7 -260 -63 -33 -129 -8 -157 60 -20 48 -17 93 9 144 33 66 76 83 141
56z"/>
<path d="M5175 7367 c-126 -42 -192 -139 -183 -269 7 -90 52 -145 194 -233 32
-20 49 -37 49 -50 0 -18 -7 -20 -61 -20 -49 0 -72 6 -122 33 -34 17 -63 32
-65 32 -1 0 -2 -57 -1 -127 l1 -127 64 -24 c87 -32 212 -40 299 -18 87 22 138
59 173 126 25 48 28 64 25 121 -5 103 -32 135 -198 242 -76 49 -87 80 -32 85
42 4 104 -27 160 -81 l42 -41 0 136 0 135 -37 26 c-21 14 -56 34 -78 43 -53
22 -179 28 -230 11z m186 -43 c30 -9 69 -25 86 -37 32 -21 33 -24 33 -94 0
-40 -2 -73 -5 -73 -3 0 -24 12 -46 27 -56 37 -138 44 -168 14 -26 -26 -27 -61
-3 -90 9 -12 55 -45 101 -74 46 -29 98 -69 115 -90 28 -35 31 -46 31 -106 0
-91 -32 -141 -113 -179 -51 -24 -68 -27 -162 -26 -79 0 -117 6 -155 20 l-50
20 -2 64 c-3 92 -3 92 57 69 62 -23 147 -25 178 -3 18 12 22 24 20 52 -3 34
-10 42 -98 102 -99 68 -135 110 -146 166 -32 170 137 293 327 238z"/>
<path d="M6132 7361 c-111 -38 -173 -121 -175 -233 -2 -102 47 -176 156 -238
111 -62 121 -100 27 -100 -36 0 -66 9 -116 35 -37 19 -68 35 -70 35 -2 0 -4
-57 -4 -126 l0 -125 43 -19 c147 -65 361 -47 450 38 61 57 89 152 68 228 -15
55 -79 126 -154 170 -76 44 -107 72 -107 96 0 14 8 18 35 18 45 0 86 -21 153
-77 l52 -45 0 131 0 131 -47 34 c-88 64 -210 82 -311 47z m237 -52 c69 -29 76
-41 77 -121 0 -37 -1 -68 -3 -68 -2 0 -27 14 -57 30 -101 57 -188 32 -176 -50
3 -25 42 -60 112 -102 81 -48 133 -103 149 -158 26 -86 -40 -197 -137 -231
-55 -20 -215 -17 -286 4 l-58 18 0 79 c0 44 2 80 4 80 2 0 23 -9 47 -20 27
-12 66 -20 102 -20 48 0 62 4 82 25 14 13 25 30 25 38 0 25 -39 64 -104 106
-111 70 -147 121 -147 206 0 96 49 163 143 197 66 23 155 18 227 -13z"/>
<path d="M6845 7366 c-119 -29 -213 -107 -268 -224 -30 -63 -32 -74 -32 -177
0 -103 2 -114 32 -177 55 -117 155 -197 279 -223 89 -19 139 -19 225 1 205 46
337 254 300 469 -43 246 -282 393 -536 331z m188 -36 c210 -34 340 -216 306
-428 -33 -210 -227 -341 -447 -302 -129 22 -228 96 -281 209 -23 49 -26 69
-26 156 0 87 3 107 27 157 50 107 128 172 241 203 63 17 103 18 180 5z"/>
<path d="M6905 7140 c-61 -25 -101 -110 -92 -197 11 -104 75 -168 159 -160 92
8 140 71 139 184 0 78 -23 128 -71 161 -34 23 -96 29 -135 12z m99 -40 c65
-24 90 -161 43 -231 -61 -91 -181 -45 -194 75 -13 114 61 190 151 156z"/>
<path d="M8753 7365 c-147 -40 -255 -149 -289 -293 -57 -241 76 -458 311 -509
321 -69 581 183 514 499 -24 114 -110 223 -213 272 -95 45 -224 57 -323 31z
m202 -36 c237 -44 363 -278 275 -512 -42 -111 -153 -196 -286 -217 -184 -30
-365 63 -425 217 -31 80 -31 215 -1 293 65 167 241 255 437 219z"/>
<path d="M8800 7127 c-54 -36 -74 -80 -74 -162 0 -53 5 -79 20 -105 62 -106
196 -106 258 0 15 26 20 52 20 105 0 53 -5 79 -20 105 -29 49 -78 80 -129 80
-27 0 -54 -8 -75 -23z m141 -45 c57 -51 59 -180 2 -234 -18 -17 -36 -23 -68
-23 -69 0 -102 41 -110 139 -10 114 99 187 176 118z"/>
<path d="M9502 7362 c-61 -22 -119 -66 -145 -109 -31 -53 -40 -136 -23 -197
19 -64 60 -108 159 -172 39 -26 75 -51 79 -57 13 -21 -14 -37 -61 -37 -42 0
-60 7 -183 68 -5 2 -8 -53 -8 -123 l0 -126 43 -19 c147 -65 361 -47 450 38 70
66 95 178 57 256 -23 50 -93 117 -151 147 -54 27 -99 68 -99 90 0 15 7 19 35
19 45 0 86 -21 153 -77 l52 -45 0 131 0 130 -33 25 c-91 70 -225 93 -325 58z
m237 -53 c28 -12 56 -28 63 -37 11 -13 21 -152 11 -152 -2 0 -27 14 -56 30
-93 52 -179 35 -179 -35 0 -35 33 -69 113 -115 78 -46 133 -104 150 -158 26
-87 -40 -199 -137 -233 -58 -20 -216 -17 -286 5 l-58 19 0 78 0 79 50 -20 c29
-11 74 -20 106 -20 45 0 59 4 79 25 44 43 28 72 -83 147 -81 55 -103 75 -128
122 -18 32 -20 118 -5 157 22 59 85 112 156 130 47 13 150 2 204 -22z"/>
<path d="M1360 7127 c0 -275 8 -328 65 -414 59 -90 145 -136 285 -155 223 -29
405 49 476 204 31 68 31 71 37 451 l2 157 -157 0 -156 0 -4 -242 c-3 -223 -5
-246 -23 -278 -38 -64 -151 -67 -186 -5 -24 41 -28 89 -28 323 l-1 202 -155 0
-155 0 0 -243z m272 -24 c3 -207 5 -232 24 -268 25 -49 72 -75 138 -75 61 0
107 27 132 78 17 32 19 67 22 265 l4 227 114 0 114 0 0 -222 c0 -247 -9 -304
-57 -372 -68 -97 -169 -140 -328 -140 -167 -1 -280 49 -341 151 -45 75 -54
139 -54 375 l0 208 114 0 114 0 4 -227z"/>
<path d="M2320 6965 l0 -405 155 0 155 0 0 405 0 405 -155 0 -155 0 0 -405z
m270 0 l0 -365 -115 0 -115 0 0 365 0 365 115 0 115 0 0 -365z"/>
<path d="M2730 6965 l0 -405 301 2 301 3 -1 98 c0 53 0 100 -1 105 0 4 -64 7
-143 7 l-142 0 -3 43 -3 42 135 0 136 0 0 110 0 110 -136 0 -135 0 3 38 3 37
135 2 c74 1 138 2 143 3 4 0 7 47 7 105 l0 105 -300 0 -300 0 0 -405z m560
300 l0 -65 -145 0 -146 0 3 -81 3 -80 133 -1 132 0 0 -69 0 -69 -135 0 -135 0
0 -85 0 -85 145 0 145 0 0 -65 0 -65 -260 0 -260 0 0 365 0 365 260 0 260 0 0
-65z"/>
<path d="M3390 7348 c0 -13 0 -194 0 -403 l0 -380 155 -3 155 -3 0 166 0 166
152 -166 153 -165 132 0 133 0 0 405 0 405 -155 0 -155 0 -2 -165 -3 -165
-150 165 -150 164 -132 0 c-131 1 -133 1 -133 -21z m425 -215 l180 -196 3 197
2 196 115 0 115 0 0 -365 0 -365 -103 0 -103 0 -179 195 -180 195 -3 -195 -2
-195 -115 0 -115 0 0 365 0 365 103 -1 102 0 180 -196z"/>
<path d="M4360 6965 l0 -405 305 0 305 0 0 105 c0 77 -3 105 -12 105 -7 1 -71
1 -143 1 -140 0 -145 2 -145 56 l0 32 137 3 137 3 0 105 -1 105 -137 3 -137 3
3 37 3 37 110 2 c61 1 125 3 143 3 l32 0 0 105 0 105 -300 0 -300 0 0 -405z
m560 300 l0 -65 -140 0 -140 0 0 -80 0 -80 123 -1 c67 -1 125 -1 130 0 9 1 9
1 13 -71 4 -69 9 -67 -154 -71 l-114 -2 -1 -80 -1 -80 148 -3 147 -3 -3 -62
-3 -62 -262 -3 -263 -2 0 365 0 365 260 0 260 0 0 -65z"/>
<path d="M7440 6965 l0 -405 160 0 160 0 2 160 3 161 75 -100 c41 -55 77 -100
80 -100 3 0 39 44 80 97 l75 97 3 -157 3 -158 159 0 160 0 0 405 0 405 -142 0
-143 -1 -95 -123 c-69 -90 -98 -121 -107 -114 -7 5 -52 61 -100 124 l-87 114
-143 0 -143 0 0 -405z m369 230 c57 -75 108 -134 113 -133 6 2 56 62 112 133
l102 130 110 0 109 0 2 -362 3 -363 -120 0 -120 0 -2 197 -3 196 -94 -121
c-52 -67 -97 -122 -100 -122 -3 1 -49 56 -101 124 l-95 123 -3 -198 -2 -199
-120 0 -120 0 1 357 c0 196 2 360 5 365 3 4 53 8 113 8 l107 0 103 -135z"/>
<path d="M5233 5999 c-71 -9 -136 -43 -178 -91 -45 -54 -58 -95 -53 -178 5
-91 34 -133 135 -198 113 -73 133 -91 133 -117 0 -66 -111 -70 -233 -9 l-48
24 3 -113 3 -112 60 -24 c51 -21 77 -25 170 -25 128 -1 181 12 246 59 60 43
92 108 92 185 0 100 -45 155 -211 254 -81 49 -101 85 -66 120 35 35 124 13
201 -50 l43 -35 0 110 0 110 -33 25 c-68 52 -170 77 -264 65z"/>
<path d="M7050 5999 c-154 -16 -267 -97 -334 -239 -29 -61 -31 -72 -31 -185 0
-109 2 -125 27 -178 33 -70 111 -155 176 -190 174 -95 397 -69 535 62 93 88
133 197 125 341 -4 71 -11 101 -36 154 -79 169 -250 256 -462 235z m140 -267
c45 -34 65 -81 65 -152 -1 -78 -25 -134 -69 -161 -64 -39 -157 -14 -191 50
-35 68 -27 187 15 239 43 52 127 63 180 24z"/>
<path d="M9118 5999 c-227 -25 -379 -212 -366 -451 13 -257 238 -430 506 -391
150 22 265 103 322 225 102 220 23 470 -181 572 -61 31 -89 38 -189 50 -14 1
-55 -1 -92 -5z m128 -258 c104 -48 113 -258 12 -321 -25 -16 -45 -20 -81 -17
-84 7 -130 70 -130 177 0 89 30 144 93 169 37 14 60 13 106 -8z"/>
<path d="M365 5986 c-116 -37 -207 -116 -258 -224 -30 -64 -32 -73 -32 -187 0
-111 2 -124 28 -176 74 -152 246 -268 576 -388 94 -35 116 -40 130 -29 88 68
201 173 190 176 -21 6 -193 74 -198 78 -2 2 20 29 48 61 63 71 98 142 109 223
29 210 -96 404 -301 465 -62 18 -235 19 -292 1z m224 -255 c48 -34 65 -68 69
-140 5 -79 -18 -135 -67 -170 -38 -27 -105 -28 -148 -1 -112 68 -89 294 33
329 37 11 83 3 113 -18z"/>
<path d="M6210 5984 c-123 -45 -190 -167 -160 -292 15 -66 64 -122 150 -173
114 -67 139 -99 105 -133 -37 -37 -137 -29 -222 19 l-43 24 0 -114 0 -113 38
-15 c123 -49 302 -47 403 4 75 38 129 127 129 213 0 86 -50 150 -177 227 -75
46 -123 88 -123 110 0 5 9 18 20 29 38 38 127 17 203 -46 16 -13 33 -24 38
-24 5 0 9 45 9 100 0 95 -1 102 -26 125 -14 13 -46 33 -72 46 -63 30 -206 37
-272 13z"/>
<path d="M9867 5986 c-52 -19 -103 -60 -135 -109 -24 -37 -27 -51 -27 -128 0
-78 2 -89 29 -128 18 -25 60 -62 105 -91 118 -76 133 -89 129 -118 -7 -60
-102 -65 -215 -13 l-64 30 3 -112 3 -112 60 -24 c50 -20 78 -24 170 -25 128
-1 181 12 246 59 60 43 92 108 92 185 0 100 -45 155 -211 254 -81 49 -101 85
-66 120 35 35 124 13 201 -50 l43 -35 0 113 0 114 -52 31 c-29 17 -71 36 -93
42 -55 15 -172 13 -218 -3z"/>
<path d="M1062 5723 c4 -249 5 -272 26 -324 46 -116 113 -181 230 -221 95 -33
287 -32 381 1 124 44 196 115 233 233 15 52 18 95 18 319 l0 259 -144 0 -144
0 -4 -247 c-3 -224 -5 -252 -23 -287 -29 -58 -61 -78 -128 -78 -69 -1 -102 18
-128 75 -17 38 -19 68 -19 290 l0 247 -151 0 -151 0 4 -267z"/>
<path d="M2100 5575 l0 -415 145 0 145 0 0 415 0 415 -145 0 -145 0 0 -415z"/>
<path d="M2550 5575 l0 -415 305 0 305 0 0 95 0 95 -160 0 -160 0 0 70 0 70
150 0 151 0 -3 93 -3 92 -148 3 -148 3 3 62 3 62 153 3 152 3 0 89 0 90 -300
0 -300 0 0 -415z"/>
<path d="M3260 5575 l0 -415 150 0 150 0 2 192 3 191 178 -191 178 -192 130 0
129 0 0 415 0 415 -150 0 -150 0 0 -195 0 -195 -181 195 -181 195 -129 0 -129
0 0 -415z"/>
<path d="M4320 5575 l0 -415 305 0 305 0 0 95 0 95 -160 0 -160 0 0 70 0 70
150 0 151 0 -3 93 -3 92 -148 3 -148 3 3 62 3 62 153 3 152 3 0 89 0 90 -300
0 -300 0 0 -415z"/>
<path d="M7660 5575 l0 -415 145 0 145 0 0 196 c0 166 2 195 14 185 7 -6 51
-61 97 -121 46 -61 87 -110 91 -110 3 0 49 54 100 120 l93 119 3 -194 2 -195
150 0 150 0 0 415 0 415 -138 0 -139 0 -108 -140 c-73 -93 -113 -136 -120
-130 -6 5 -56 68 -110 139 l-100 131 -137 0 -138 0 0 -415z"/>
<path d="M763 4480 c-206 -41 -350 -257 -314 -472 34 -206 190 -335 579 -477
l113 -41 114 97 c63 53 115 99 115 102 0 4 -28 16 -62 28 -35 12 -80 29 -101
38 l-38 16 36 37 c19 20 50 66 68 102 30 61 32 71 32 170 0 97 -2 110 -31 171
-86 181 -290 272 -511 229z m208 -44 c37 -8 85 -24 106 -35 60 -30 131 -105
161 -169 23 -49 27 -70 27 -152 0 -84 -3 -102 -29 -153 -16 -33 -53 -83 -84
-113 -30 -30 -53 -56 -51 -58 2 -1 45 -20 96 -41 105 -44 105 -37 2 -121 l-70
-57 -102 38 c-366 138 -507 253 -536 437 -33 205 98 394 298 428 71 12 110 11
182 -4z"/>
<path d="M813 4246 c-17 -8 -44 -34 -60 -57 -24 -37 -28 -52 -28 -113 0 -54 5
-80 21 -106 29 -51 78 -80 132 -80 93 0 152 73 152 189 0 69 -13 102 -59 145
-36 35 -108 45 -158 22z m116 -41 c80 -41 82 -218 2 -259 -75 -40 -153 6 -166
98 -18 121 72 209 164 161z"/>
<path d="M5175 4477 c-127 -42 -194 -141 -182 -271 8 -91 52 -144 193 -231 64
-39 67 -69 9 -73 -50 -4 -108 12 -157 44 -21 13 -41 24 -46 24 -4 0 -7 -57 -6
-127 l3 -128 63 -23 c128 -48 308 -38 400 23 21 14 51 49 68 78 28 47 31 59
28 123 -5 108 -31 140 -213 257 -60 39 -68 70 -19 75 45 4 91 -18 152 -72 l52
-48 0 135 0 134 -37 26 c-21 14 -56 34 -78 43 -53 22 -179 28 -230 11z m182
-40 c29 -8 68 -25 88 -38 35 -24 35 -25 35 -97 l0 -72 -56 30 c-95 50 -184 34
-184 -34 0 -35 26 -61 119 -119 46 -29 98 -69 115 -90 28 -35 31 -46 31 -106
0 -91 -32 -141 -113 -179 -51 -24 -68 -27 -162 -26 -77 1 -118 7 -155 21 l-50
19 -1 77 c0 42 0 77 0 77 1 0 25 -9 54 -20 64 -24 149 -26 180 -4 18 12 22 24
20 52 -3 33 -10 42 -73 84 -113 77 -136 98 -156 142 -35 76 -20 161 37 220 66
68 163 91 271 63z"/>
<path d="M6133 4472 c-101 -36 -155 -97 -174 -196 -20 -112 31 -205 155 -275
110 -63 119 -101 26 -101 -36 0 -66 9 -116 35 -37 19 -68 35 -70 35 -2 0 -4
-57 -4 -126 l0 -125 43 -19 c104 -46 283 -50 375 -10 86 38 138 108 149 199
11 96 -44 178 -168 252 -77 46 -104 72 -96 94 8 20 59 19 100 -1 18 -9 56 -37
85 -61 l52 -45 0 129 c0 150 -1 152 -104 199 -79 36 -179 42 -253 16z m236
-53 c28 -12 56 -28 63 -37 14 -16 20 -81 12 -124 l-5 -27 -53 30 c-101 56
-188 31 -176 -51 3 -25 42 -60 110 -100 98 -58 160 -134 160 -197 0 -76 -62
-161 -138 -190 -65 -25 -216 -24 -294 1 l-58 19 0 78 c0 44 2 79 4 79 2 0 25
-9 51 -21 62 -28 167 -24 190 6 33 44 12 76 -93 147 -81 55 -103 75 -128 121
-17 32 -20 119 -6 158 23 59 86 112 157 130 47 13 150 2 204 -22z"/>
<path d="M6843 4475 c-114 -31 -207 -105 -257 -203 -57 -112 -57 -281 -1 -391
32 -64 112 -142 178 -174 107 -53 257 -59 371 -16 254 95 338 433 163 652 -95
117 -294 175 -454 132z m202 -36 c111 -20 217 -96 263 -186 70 -137 45 -325
-56 -431 -59 -62 -130 -98 -222 -113 -183 -28 -362 65 -421 220 -31 80 -31
215 -1 291 66 168 241 255 437 219z"/>
<path d="M6891 4238 c-54 -36 -75 -80 -75 -157 -1 -80 23 -135 73 -168 45 -30
107 -30 151 0 93 62 106 217 26 304 -28 31 -40 37 -87 40 -45 4 -60 1 -88 -19z
m143 -50 c58 -58 57 -176 -1 -230 -35 -32 -102 -32 -137 1 -32 30 -49 110 -36
166 21 91 113 124 174 63z"/>
<path d="M8751 4474 c-216 -58 -338 -267 -290 -496 24 -112 106 -218 211 -271
115 -58 280 -59 402 -4 244 112 304 468 112 660 -110 109 -280 153 -435 111z
m204 -35 c125 -23 234 -109 276 -216 32 -81 32 -215 0 -295 -94 -241 -451
-303 -637 -111 -132 136 -136 365 -9 510 87 99 221 140 370 112z"/>
<path d="M8820 4253 c-24 -9 -61 -45 -78 -78 -10 -19 -16 -56 -16 -100 0 -57
4 -78 23 -109 64 -103 194 -101 255 4 29 49 29 161 0 210 -38 65 -118 97 -184
73z m126 -67 c32 -32 37 -47 37 -116 1 -78 -36 -128 -100 -137 -32 -4 -45 0
-71 22 -36 31 -48 75 -43 169 2 44 60 96 106 96 29 0 45 -8 71 -34z"/>
<path d="M9507 4476 c-100 -37 -159 -103 -178 -197 -22 -112 31 -207 155 -278
74 -43 100 -69 85 -87 -28 -33 -172 0 -231 53 -17 15 -18 9 -18 -116 l0 -132
43 -19 c62 -27 170 -43 253 -37 158 12 257 96 271 231 10 93 -46 175 -168 247
-77 46 -104 72 -96 94 8 20 59 19 100 -1 18 -9 56 -37 85 -61 l52 -45 0 129
c0 150 -1 152 -105 199 -72 33 -188 43 -248 20z m232 -57 c28 -12 56 -28 63
-37 11 -13 21 -152 11 -152 -2 0 -27 14 -56 30 -90 50 -179 33 -179 -34 0 -35
32 -69 112 -116 98 -58 160 -134 160 -197 0 -76 -62 -161 -138 -190 -65 -25
-216 -24 -294 1 l-58 19 0 78 c0 44 2 79 4 79 2 0 25 -9 51 -21 62 -28 167
-24 190 6 33 44 12 76 -93 147 -76 51 -87 61 -118 105 -45 64 -35 167 24 233
71 79 204 100 321 49z"/>
<path d="M1362 4213 c3 -253 5 -271 26 -326 40 -98 140 -182 250 -208 73 -18
179 -21 253 -9 145 24 240 88 290 194 37 78 39 99 42 379 l2 237 -157 0 -156
0 -4 -242 c-2 -204 -6 -248 -20 -274 -28 -51 -99 -69 -157 -40 -50 26 -55 50
-59 314 l-4 242 -155 0 -154 0 3 -267z m270 0 c3 -207 5 -232 24 -267 53 -102
215 -102 268 0 19 35 21 60 24 267 l4 227 114 0 114 0 0 -227 c0 -232 -6 -278
-43 -349 -61 -117 -239 -182 -422 -155 -130 19 -214 66 -261 147 -45 76 -54
139 -54 372 l0 212 114 0 114 0 4 -227z"/>
<path d="M2320 4075 l0 -405 155 0 155 0 0 405 0 405 -155 0 -155 0 0 -405z
m270 0 l0 -365 -115 0 -115 0 0 365 0 365 115 0 115 0 0 -365z"/>
<path d="M2730 4075 l0 -405 299 0 c268 0 300 2 303 16 2 9 2 56 0 105 l-3 89
-107 1 c-191 1 -177 -2 -180 47 l-3 42 135 0 136 0 0 110 0 110 -136 0 -135 0
3 38 3 37 142 0 143 0 0 108 0 107 -300 0 -300 0 0 -405z m560 300 l0 -65
-145 0 -145 0 0 -80 c0 -57 4 -80 13 -80 6 -1 66 -2 132 -3 l120 -2 0 -65 0
-65 -120 -2 c-66 -1 -126 -2 -132 -3 -9 0 -13 -24 -13 -85 l0 -85 150 0 150 0
0 -49 c0 -87 20 -81 -271 -81 l-259 0 0 365 0 365 260 0 260 0 0 -65z"/>
<path d="M3387 4077 l1 -402 156 -3 156 -3 0 166 0 166 152 -166 153 -165 132
0 133 0 0 405 0 405 -155 0 -155 0 -2 -165 -3 -164 -150 164 -150 164 -135 1
-135 0 2 -403z m428 166 l180 -196 3 196 2 197 115 0 115 0 0 -365 0 -365
-103 0 -103 0 -179 196 -180 196 -3 -196 -2 -196 -115 0 -115 0 0 365 0 365
103 0 102 -1 180 -196z"/>
<path d="M4360 4075 l0 -405 305 0 305 0 0 105 0 105 -37 0 c-21 0 -87 2 -148
3 l-110 2 -3 43 -3 42 135 0 136 0 1 35 c1 19 1 53 1 75 0 22 0 56 -1 75 l-1
35 -135 0 -135 0 0 28 c0 50 6 52 153 49 l137 -2 0 108 0 107 -300 0 -300 0 0
-405z m560 300 l0 -64 -142 -3 c-141 -3 -142 -3 -141 -25 0 -13 1 -48 2 -78
l1 -55 129 0 c115 0 130 -2 134 -17 3 -16 3 -75 -2 -110 -1 -10 -34 -13 -131
-13 l-130 0 0 -85 0 -85 145 0 145 0 0 -65 0 -65 -265 0 -265 0 0 365 0 365
260 0 260 0 0 -65z"/>
<path d="M7440 4075 l0 -405 160 0 160 0 2 159 3 159 75 -99 c41 -54 77 -98
80 -98 3 0 39 43 80 96 l75 97 3 -157 3 -157 159 0 160 0 0 405 0 405 -142 0
-143 -1 -95 -123 c-63 -82 -99 -121 -106 -115 -6 5 -51 61 -100 124 l-88 115
-143 0 -143 0 0 -405z m369 230 c58 -75 109 -134 114 -132 5 1 55 61 111 132
l102 130 110 0 109 0 2 -362 2 -363 -119 0 -118 0 1 195 c1 107 -1 195 -5 195
-3 0 -48 -54 -99 -120 -51 -66 -96 -120 -99 -120 -3 1 -48 56 -100 124 l-95
123 -3 -198 -2 -199 -119 0 -119 0 -2 358 c0 197 2 361 6 365 4 4 55 7 113 7
l106 0 104 -135z"/>
<path d="M1099 2861 c-209 -67 -316 -308 -224 -508 64 -140 177 -221 463 -334
69 -27 129 -49 135 -49 12 0 217 171 217 181 0 5 -5 9 -10 9 -6 0 -47 14 -91
31 l-80 31 30 33 c81 93 113 199 92 311 -15 84 -40 133 -99 196 -51 55 -101
84 -177 104 -70 19 -189 17 -256 -5z m317 -61 c210 -108 247 -368 75 -537
l-51 -51 87 -37 c49 -21 89 -38 91 -40 1 -1 -31 -30 -72 -64 l-74 -61 -79 29
c-218 81 -381 172 -436 244 -58 77 -71 116 -72 217 0 112 18 161 86 235 74 80
143 106 280 102 88 -2 102 -5 165 -37z"/>
<path d="M1185 2661 c-53 -24 -85 -85 -85 -164 0 -168 186 -230 261 -87 23 42
25 139 5 178 -26 50 -62 75 -113 78 -26 2 -57 0 -68 -5z m120 -53 c57 -50 50
-182 -11 -223 -27 -17 -76 -20 -105 -5 -63 34 -71 169 -14 226 32 32 94 33
130 2z"/>
<path d="M5166 2865 c-50 -18 -82 -41 -120 -89 -27 -33 -31 -47 -34 -110 -3
-59 0 -81 17 -114 21 -41 74 -90 144 -131 58 -35 70 -50 55 -68 -20 -24 -107
-10 -173 27 l-56 32 3 -119 3 -118 55 -21 c113 -45 274 -38 360 14 88 54 126
183 80 272 -21 41 -56 72 -159 142 -72 48 -81 62 -53 77 29 16 78 -2 144 -54
l58 -45 0 119 0 118 -37 26 c-80 56 -201 73 -287 42z m228 -50 c19 -9 41 -24
48 -32 13 -16 20 -133 7 -133 -4 0 -27 11 -50 25 -77 43 -159 27 -159 -32 0
-40 16 -58 89 -102 81 -48 147 -118 154 -164 7 -51 -19 -121 -58 -156 -69 -61
-225 -78 -340 -38 l-40 14 -3 72 c-2 57 0 72 10 68 106 -44 192 -43 214 2 20
38 3 62 -85 121 -106 72 -136 113 -135 189 1 78 34 135 98 168 64 33 177 32
250 -2z"/>
<path d="M6060 2871 c-77 -25 -139 -81 -160 -146 -7 -21 -10 -63 -8 -95 6 -83
39 -128 144 -196 46 -30 84 -60 84 -68 0 -44 -126 -29 -200 24 -15 11 -31 20
-34 20 -3 0 -6 -52 -6 -116 l0 -115 43 -19 c84 -37 223 -46 313 -21 97 27 166
114 166 209 -1 91 -36 139 -159 219 -82 52 -103 83 -69 96 33 13 119 -28 165
-77 14 -14 27 -26 30 -26 11 0 4 229 -7 243 -7 8 -35 27 -64 42 -43 24 -67 29
-133 32 -44 1 -91 -1 -105 -6z m179 -41 c19 -5 49 -20 67 -32 33 -22 34 -25
34 -91 l0 -67 -53 30 c-85 48 -167 34 -167 -29 0 -33 29 -62 126 -123 75 -48
108 -90 119 -149 12 -66 -41 -153 -115 -187 -52 -23 -220 -23 -282 1 l-48 19
0 70 c0 63 2 69 18 63 99 -43 180 -42 208 1 25 37 6 66 -73 118 -111 72 -144
116 -145 195 0 84 52 158 129 181 39 12 142 12 182 0z"/>
<path d="M6689 2866 c-189 -51 -302 -254 -255 -459 54 -232 326 -351 561 -243
146 67 230 244 195 418 -6 34 -19 76 -27 93 -45 89 -140 165 -235 191 -64 17
-177 17 -239 0z m282 -58 c69 -32 125 -88 158 -158 22 -47 26 -68 26 -150 0
-111 -18 -162 -84 -233 -62 -67 -144 -101 -251 -101 -101 -1 -151 13 -217 57
-168 115 -191 378 -45 522 99 99 277 126 413 63z"/>
<path d="M6731 2645 c-89 -76 -75 -253 25 -300 68 -32 142 -3 175 68 36 79 20
177 -37 226 -47 41 -117 44 -163 6z m139 -30 c26 -16 42 -69 38 -128 -4 -52
-9 -64 -36 -88 -74 -66 -162 -8 -162 106 0 59 23 103 62 120 29 12 69 8 98
-10z"/>
<path d="M8423 2861 c-184 -63 -285 -255 -239 -454 44 -189 232 -308 440 -278
185 27 309 159 323 345 14 182 -84 332 -254 387 -74 25 -199 25 -270 0z m305
-55 c60 -31 117 -87 150 -151 24 -44 27 -61 27 -150 0 -117 -17 -165 -84 -238
-62 -67 -144 -101 -251 -101 -101 -1 -152 13 -216 57 -198 136 -189 442 16
571 93 59 255 64 358 12z"/>
<path d="M8477 2640 c-81 -71 -70 -243 19 -291 39 -20 106 -16 142 9 79 57 83
214 6 281 -29 26 -43 31 -84 31 -40 0 -55 -5 -83 -30z m141 -27 c32 -20 44
-59 40 -127 -4 -51 -9 -63 -36 -87 -74 -66 -162 -8 -162 106 0 59 23 103 63
120 34 15 58 12 95 -12z"/>
<path d="M9123 2864 c-62 -22 -120 -85 -139 -152 -14 -47 -15 -64 -4 -109 15
-67 51 -110 145 -172 47 -32 70 -53 70 -66 0 -18 -7 -20 -57 -19 -44 1 -69 8
-112 33 l-56 31 0 -119 0 -119 68 -23 c85 -29 222 -31 298 -6 95 33 161 130
152 227 -7 73 -45 122 -141 184 -94 61 -115 82 -99 98 27 27 86 7 157 -51 l50
-41 3 115 c3 115 3 115 -25 140 -68 60 -214 83 -310 49z m238 -51 l54 -28 3
-73 3 -73 -39 26 c-70 46 -149 46 -170 0 -19 -41 1 -70 80 -121 125 -79 158
-120 158 -196 0 -53 -33 -114 -78 -145 -67 -45 -217 -54 -318 -20 l-39 14 -3
73 c-3 66 -1 72 15 65 92 -39 125 -43 178 -21 28 12 35 20 35 44 0 33 -22 60
-77 92 -120 73 -159 130 -150 218 11 107 96 172 222 172 58 0 82 -5 126 -27z"/>
<path d="M1680 2660 c0 -117 5 -232 11 -262 25 -115 95 -201 196 -241 161 -63
391 -30 489 71 82 84 94 136 94 415 l0 227 -142 0 -143 0 -1 -213 c0 -174 -3
-219 -17 -250 -33 -76 -146 -77 -182 -2 -12 27 -15 75 -15 249 l0 216 -145 0
-145 0 0 -210z m252 -32 c3 -180 6 -218 21 -245 50 -93 189 -94 242 -3 18 31
21 57 25 245 l5 210 105 0 105 0 -1 -205 c0 -251 -11 -297 -82 -372 -68 -70
-134 -92 -277 -92 -133 1 -205 24 -267 86 -76 76 -83 103 -86 359 l-3 227 104
1 105 2 4 -213z"/>
<path d="M2560 2500 l0 -370 140 0 140 0 0 370 0 370 -140 0 -140 0 0 -370z
m248 3 l2 -333 -110 0 -110 0 0 328 c0 181 3 331 6 334 3 4 51 5 107 5 l102
-2 3 -332z"/>
<path d="M2936 2833 c1 -21 2 -188 3 -370 l1 -333 275 0 275 0 0 100 0 100
-135 0 -135 0 0 40 0 40 125 0 125 0 0 98 0 97 -122 0 -123 0 -3 38 -3 37 129
0 c95 0 131 3 134 13 2 6 2 49 0 95 l-4 82 -272 0 -272 0 2 -37z m509 -58 l0
-60 -124 -2 c-148 -2 -141 5 -132 -125 1 -16 14 -18 121 -18 l120 0 0 -60 0
-60 -120 0 -120 0 0 -80 0 -80 130 0 130 0 0 -60 0 -60 -240 0 -240 0 0 328
c0 181 3 331 6 335 3 3 110 5 237 4 l232 -2 0 -60z"/>
<path d="M3540 2500 l0 -370 143 0 142 0 -3 145 c-2 93 0 145 7 145 5 0 70
-65 143 -145 l133 -145 123 0 122 0 0 370 0 370 -145 0 -144 0 -3 -147 -3
-147 -135 147 -135 147 -122 0 -123 0 0 -370z m387 158 l168 -181 3 173 c2
124 6 176 15 182 12 8 161 8 185 0 9 -3 12 -79 12 -333 l0 -329 -94 0 -95 0
-163 176 -163 177 -3 -177 -2 -176 -109 0 -109 0 -1 309 c-1 170 1 321 5 335
6 25 8 26 94 26 l88 0 169 -182z"/>
<path d="M4430 2500 l0 -370 275 0 c255 0 275 1 276 18 2 26 2 81 1 135 l-2
47 -130 0 -130 0 0 40 0 40 123 0 123 0 -1 90 c-1 49 -5 93 -9 97 -4 4 -59 6
-122 4 l-114 -3 0 41 0 41 130 0 130 0 0 95 0 95 -275 0 -275 0 0 -370z m505
275 l0 -60 -127 0 -128 0 0 -72 0 -73 125 0 125 0 0 -60 0 -60 -125 0 -125 0
0 -80 0 -80 135 0 135 0 0 -60 0 -60 -240 0 -240 0 0 335 0 336 233 -3 232 -3
0 -60z"/>
<path d="M7250 2500 l0 -370 145 0 144 0 3 146 3 147 60 -78 c33 -43 65 -85
70 -93 9 -11 26 5 82 77 40 50 74 88 76 84 2 -5 5 -69 5 -143 l1 -135 140 -3
141 -3 0 371 0 370 -128 0 -127 0 -85 -110 c-47 -60 -88 -110 -92 -110 -4 0
-44 49 -90 109 l-83 110 -132 0 -133 1 0 -370z m237 332 c7 -5 181 -225 197
-249 1 -1 46 54 100 122 55 70 108 128 120 131 11 3 57 4 101 2 l80 -3 0 -330
0 -330 -107 -3 -108 -3 0 182 0 183 -91 -117 -92 -116 -93 121 -94 120 0 -186
0 -186 -105 0 -105 0 0 329 c0 255 3 330 13 334 20 7 173 6 184 -1z"/>
</g>
</svg>
